<?xml version="1.0" encoding="UTF-8" standalone="no"?>
<!DOCTYPE svg PUBLIC "-//W3C//DTD SVG 1.1//EN" "http://www.w3.org/Graphics/SVG/1.1/DTD/svg11.dtd">
<svg width="100%" height="100%" viewBox="0 0 1104 353" version="1.1" xmlns="http://www.w3.org/2000/svg" xmlns:xlink="http://www.w3.org/1999/xlink" xml:space="preserve" xmlns:serif="http://www.serif.com/" style="fill-rule:evenodd;clip-rule:evenodd;">
    <g id="aoAEcbHWm-2" transform="matrix(1,0,0,1,51,44)">
        <path d="M127.05,10L129.43,10.08L131.8,10.21L134.15,10.37L136.48,10.57L138.8,10.82L141.1,11.1L143.39,11.42L145.66,11.79L147.92,12.19L150.16,12.64L152.39,13.12L154.6,13.65L156.79,14.22L158.97,14.82L161.13,15.47L163.27,16.16L165.4,16.89L167.51,17.67L169.6,18.48L171.68,19.34L173.74,20.23L175.74,21.17L179.74,23.17L181.74,24.24L183.74,25.34L185.74,26.49L187.68,27.68L189.6,28.91L191.51,30.18L193.4,31.5L195.27,32.86L197.12,34.26L199,35.68L200.82,37.17L202.62,38.69L204.4,40.27L206.16,41.88L207.91,43.54L209.4,45L210.88,46.51L212.32,48.03L213.74,49.56L215.12,51.12L216.46,52.69L217.78,54.28L219.06,55.88L220.32,57.5L221.53,59.14L222.72,60.79L223.88,62.46L225,64.17L226.09,65.87L227.15,67.59L228.15,69.32L229.15,71.07L230.15,72.84L231.09,74.62L231.99,76.42L232.87,78.23L233.71,80.06L234.52,81.9L235.3,83.76L236.05,85.63L236.77,87.52L237.46,89.43L238.12,91.34L238.75,93.28L239.35,95.28L239.92,97.28L240.46,99.28L240.97,101.28L241.45,103.28L241.9,105.28L242.32,107.28L242.72,109.28L243.08,111.34L243.41,113.41L243.72,115.5L243.97,117.4L244.2,119.29L244.4,121.19L244.59,123.08L244.75,124.96L244.88,126.85L244.99,128.73L245.08,130.61L245.15,132.48L245.15,139.96L245.09,141.82L245.01,143.68L244.9,145.54L244.77,147.39L244.61,149.24L244.42,151.08L244.2,152.93L243.96,154.76L243.7,156.6L243.4,158.43L243.08,160.25L242.73,162.08L242.35,163.89L241.95,165.71L241.52,167.52L241.05,169.32L240.56,171.12L240.04,172.92L239.49,174.71L238.92,176.5L238.31,178.28L237.67,180.06L237,181.83L236.3,183.6L235.57,185.37L234.81,187.12L234.02,188.88L232.55,192L231,195L229.43,198L227.81,200.9L226.13,203.72L224.41,206.48L222.64,209.17L220.81,211.79L219,214.29L217,216.78L215,219.19L213,221.54L211,223.82L208.85,226L206.67,228.14L204.45,230.22L202.17,232.22L199.85,234.16L197.48,236.03L195.06,237.83L192.58,239.57L190.06,241.23L187.49,242.83L184.87,244.36L182.2,245.82L179.48,247.21L176.72,248.54L173.9,249.79L171,251L168.09,252.11L165.09,253.16L162.09,254.16L159.02,255.07L155.92,255.91L152.76,256.69L149.55,257.39L146.3,258.03L142.99,258.59L139.64,259.09L136.24,259.52L133.92,259.76L131.62,259.97L129.31,260.14L127.02,260.27L124.74,260.36L122.46,260.41L117.94,260.41L115.69,260.34L113.45,260.24L111.23,260.09L109.01,259.9L106.8,259.67L104.59,259.41L102.4,259.1L100.22,258.75L98.05,258.36L96,257.92L93.85,257.45L91.71,256.94L89.58,256.39L87.46,255.79L85.35,255.16L83.25,254.49L81.16,253.77L79,253L76.93,252.2L74.93,251.36L72.93,250.48L70.93,249.56L64.93,246.56L62.93,245.47L60.93,244.34L58.93,243.16L56.98,241.95L55,240.68L53.07,239.37L51.13,238L49.06,236.49L47,235L45,233.44L43.06,231.85L41.17,230.23L39.33,228.58L37.52,226.91L35.77,225.21L34.05,223.48L32.38,221.72L30.76,219.93L29.18,218.12L27.64,216.29L26.14,214.42L24.69,212.53L23.28,210.61L22,208.66L20.68,206.66L19.39,204.66L18.15,202.66L16.96,200.66L15.8,198.58L14.69,196.48L13.61,194.36L12.61,192.21L11.61,190.04L10.61,187.84L9.7,185.62L8.84,183.37L8,181.07L7.21,178.77L6.47,176.45L5.76,174.11L5.09,171.74L4.47,169.35L3.88,166.94L3.33,164.5L2.84,162L2.37,159.51L1.94,157.01L1.85,156.46L1.76,156L1.52,154.35L1.45,153.81L1.38,153.26L1.24,152.18L1.12,151.1L1.06,150.57L1,150L1,148.95L0.94,148.43L0.94,147.92L0.89,147.41L0.84,146.91L0.84,138.27L0.89,135.83L0.96,133.41L0.23,131L0.36,128.62L0.52,126.27L0.71,123.93L0.93,121.62L1.18,119.32L1.45,117.05L1.76,114.8L2.1,112.56L2.47,110.35L2.87,108.15L3.3,106L3.77,103.84L4.27,101.7L4.79,99.58L5.35,97.48L6,95.39L6.63,93.32L7.29,91.32L7.98,89.32L8.71,87.32L9.48,85.32L10.28,83.32L11.11,81.32L11.98,79.38L12.89,77.45L13.83,75.55L14.83,73.65L15.83,71.78L16.88,69.92L17.97,68.08L19,66.24L20.17,64.43L21.37,62.63L22.61,60.85L23.89,59.09L25.21,57.33L26.58,55.6L28.47,53.27L30.43,51L32.43,48.8L34.43,46.67L36.43,44.59L38.43,42.59L40.5,40.59L42.6,38.7L44.74,36.87L46.9,35.11L49.09,33.4L51.3,31.76L53.55,30.17L55.83,28.65L58.13,27.19L60.47,25.79L62.83,24.45L65.22,23.17L67.62,22L70.07,20.84L72.54,19.74L75.04,18.74L77.57,17.74L80.13,16.81L82.71,15.95L85.33,15.14L88,14.38L90.67,13.69L93.36,13.06L96,12.49L98.79,12L101.56,11.55L104.35,11.15L107.18,10.81L110,10.5L112.87,10.27L115.77,10.1L118.7,9.99L121.7,9.94L124.7,9.94L127.05,10ZM116.73,34.05L114.05,34.2L111.4,34.42L108.78,34.7L106.18,35.04L103.62,35.45L101.08,35.93L98.57,36.47L96.09,37.07L93.65,37.74L91.23,38.48L88.84,39.28L86.48,40.15L84.15,41.08L81.86,42.08L79.59,43.15L77.35,44.28L75.15,45.48L73,46.74L70.85,48.08L68.74,49.48L66.65,51L64.6,52.48L62.6,54.08L60.6,55.76L58.6,57.49L56.75,59.3L54.86,61.18L53,63.12L51.18,65.12L49.4,67.2L47.65,69.35L46,71.58L44.32,73.87L42.68,76.23L41.4,78.09L40.22,80L39.08,81.89L38,83.74L37,85.64L35,89.48L34.1,91.41L33.24,93.41L32.43,95.41L31.67,97.41L30.95,99.41L30.27,101.41L29.64,103.41L29.05,105.41L28.51,107.41L28.01,109.41L27.55,111.41L27.13,113.41L26.76,115.41L26.43,117.41L26.14,119.47L25.89,121.53L25.69,123.61L25.52,125.69L25.39,127.78L25.31,129.88L25.31,136.21L25.38,138.33L25.49,140.46L25.63,142.6L25.81,144.74L26.03,146.89L26.29,149.05L26.58,151.2L26.91,153.37L27.27,155.54L27.67,157.72L28.39,161.17L29.22,164.58L30.16,167.93L31.22,171.21L32.37,174.44L33.63,177.61L34.99,180.71L36.45,183.71L38,186.71L39.65,189.62L41.4,192.45L43.23,195.21L45.15,197.9L47.15,200.51L49.24,203.05L51.42,205.5L53.67,207.88L56,210.18L58.41,212.39L60.89,214.51L63.44,216.51L66.07,218.46L68.75,220.31L71.51,222.08L74.33,223.75L77.21,225.32L80.14,226.8L83.14,228.18L86.14,229.45L89.25,230.62L92.4,231.69L95.6,232.69L98.84,233.54L102.13,234.29L105.46,234.92L108.84,235.44L112.24,235.85L115.69,236.14L119.17,236.31L122.68,236.36L125.68,236.31L128.68,236.17L131.68,235.95L134.63,235.64L137.55,235.25L140.45,234.78L143.31,234.22L146.14,233.59L148.94,232.87L151.7,232.07L154.43,231.2L157.13,230.2L159.78,229.2L162.4,228.09L164.97,226.91L167.51,225.65L170,224.32L172.44,222.92L174.84,221.45L177.2,219.9L179.5,218.29L181.76,216.6L183.96,214.85L186.11,213.03L188.21,211.14L190.21,209.19L192.21,207.19L194.14,205.1L196.01,202.96L197.82,200.75L199.57,198.48L201.26,196.15L202.88,193.75L204.44,191.3L206,188.8L207.42,186.24L208.77,183.61L210.05,180.93L211.26,178.2L212.4,175.41L212.94,173.99L213.47,172.55L213.97,171.12L214.46,169.68L214.92,168.23L215.36,166.77L215.79,165.32L216.19,163.85L216.57,162.39L216.93,160.91L217.28,159.44L217.6,157.96L217.9,156.48L218.18,154.99L218.44,153.5L218.68,152L218.9,150.51L219.1,149.01L219.27,147.51L219.43,146L219.57,144.5L219.68,142.99L219.78,141.48L219.85,139.97L219.91,138.46L219.91,130.92L219.84,129.41L219.75,127.89L219.63,126.38L219.5,124.87L219.35,123.36L219.17,121.85L218.98,120.34L218.76,118.83L218.52,117.33L218.26,115.82L217.65,112.5L216.95,109.23L216.14,106L215.24,102.82L214.24,99.69L213.15,96.62L211.98,93.62L210.71,90.62L209.36,87.71L207.93,84.86L206.41,82.07L204.81,79.34L203.12,76.67L201.36,74.07L199.53,71.54L197.61,69.07L195.61,66.68L193.55,64.35L191.42,62.1L189.22,59.92L186.96,57.82L184.63,55.82L182.24,53.88L179.74,52L177.22,50.22L174.65,48.52L172,46.88L169.31,45.36L166.57,43.92L163.78,42.58L161,41.33L158.11,40.17L155.17,39.11L152.17,38.11L149.17,37.24L146.1,36.48L142.99,35.81L139.84,35.25L136.66,34.8L133.44,34.45L130.59,34.22L127.77,34.05L124.98,33.95L119.49,33.95L116.73,34.05Z" style="fill:white;fill-rule:nonzero;stroke:black;stroke-opacity:0;stroke-width:1px;"/>
    </g>
    <g id="c4wohvAvd-2" transform="matrix(1,0,0,1,51,44)">
        <path d="M515.19,257L491.71,257L491.19,256.9L490.69,256.78L490.45,256.71L490.21,256.63L489.75,256.45L489.31,256.23L489.1,256.11L488.91,255.99L488.55,255.71L488.38,255.56L488.21,255.4L488.05,255.23L487.9,255.05L487.74,254.87L487.6,254.67L487.45,254.47L487.31,254.27L486.92,253.61L486.8,253.38L486.67,253.14L486.55,252.9L486.44,252.66L486.32,252.41L486.1,251.91L486,251.65L485.78,251.13L485.68,250.87L485.58,250.6L485.48,250.34L485.37,250.07L485.27,249.81L485.17,249.54L485.07,249.28L485,249L484.9,248.74L484.79,248.48L484.69,248.22L484.59,247.97L484.48,247.71L484.37,247.46L484.26,247.22L484.15,246.97L458.77,192.51L458.71,192.38L458.65,192.24L458.59,192.11L458.52,191.98L458.46,191.85L458.4,191.71L458.34,191.58L458.27,191.45L458.21,191.31L458.15,191.18L458.08,191.05L458.02,190.91L457.96,190.78L457.89,190.65L457.83,190.51L457.76,190.38L457.7,190.24L457.64,190.11L457.57,189.97L457.51,189.84L457.37,189.56L457.31,189.43L457.24,189.29L457.18,189.15L457.11,189.02L457.04,188.88L456.98,188.74L456.77,188.32L456.71,188.18L456.5,187.76L456.43,187.61L456.29,187.33L456.22,187.18L456.15,187.04L338.35,187.04L338.05,187.64L338,187.76L337.1,189.56L337.04,189.67L336.92,189.91L336.87,190.03L336.63,190.51L336.58,190.62L336.4,190.98L336.4,191.1L336.34,191.21L336.29,191.33L336.17,191.57L336.12,191.69L336.06,191.81L335.35,193.32L334.65,194.84L333.94,196.36L333.23,197.87L331.1,202.43L330.39,203.94L328.26,208.5L327.5,210L325.37,214.56L324.66,216.07L323.95,217.59L323.25,219.11L321.83,222.15L321.12,223.66L320.41,225.18L319.71,226.7L319,228.22L318.3,229.74L317.59,231.26L316.89,232.78L316.18,234.3L315.48,235.82L314.77,237.33L313.37,240.37L312.67,241.9L310.57,246.46L309.88,247.98L308.48,251.02L307.79,252.54L307.67,252.8L307.55,253.05L307.43,253.29L307.19,253.75L306.93,254.17L306.8,254.37L306.67,254.56L306.39,254.92L306.25,255.09L306.11,255.25L305.81,255.55L305.65,255.69L305.5,255.82L305.33,255.94L305.17,256.06L305,256.17L304.83,256.27L304.65,256.37L304.47,256.46L304.28,256.55L304.09,256.62L303.89,256.7L303.49,256.82L303.28,256.88L303.06,256.88L302.84,256.93L280.66,256.93L280.66,256.81L280.6,256.7L280.6,256.51L284.92,247.12L289.19,237.83L293.41,228.64L297.58,219.56L301.71,210.56L305.77,201.71L309.77,192.98L313.77,184.39L317.66,175.92L321.49,167.59L325.25,159.41L328.95,151.41L332.57,143.52L336.13,135.78L339.61,128.21L343.02,120.8L346.34,113.57L349.59,106.5L352.76,99.62L355.84,92.92L358.84,86.41L361.75,80.09L364.56,73.98L367.28,68.06L369.91,62.35L372.44,56.86L374.86,51.58L377.19,46.52L379.41,41.69L381.53,37.09L383.53,32.73L385.43,28.6L387.21,24.73L388.88,21.1L390.43,17.73L391.86,14.61L392.66,11L393.85,8.42L394.91,6.12L395.84,4.12L395.84,2.61L395.89,2.55L395.89,2.3L395.94,2.24L395.94,2.12L395.99,2.06L395.99,1.94L396.04,1.88L396.04,1.76L396.09,1.7L396.09,1.64L515.19,257ZM394.75,64.09L393.53,66.73L392.32,69.37L391.13,72L388.71,77.26L386.29,82.5L385.09,85.11L383.88,87.73L382.67,90.34L381.47,93L380.27,95.6L379.07,98.21L377.86,100.81L374.26,108.61L373.07,111.2L370.67,116.4L368.27,121.58L367.08,124.18L364.68,129.36L363.48,131.96L362.29,134.55L361.09,137.15L359.89,139.74L358.7,142.34L352.7,155.34L351.5,157.95L350.3,160.55L349.1,163.16L350.21,163.24L351.55,163.31L353.11,163.38L354.88,163.44L356.83,163.49L358.97,163.54L421.9,163.54L424.66,163.49L427.31,163.49L429.82,163.43L432.18,163.37L434.39,163.31L436.39,163.24L438.24,163.17L439.88,163.09L441.32,163.01L442.53,162.93L443.53,162.85L444.25,162.76L444.71,162.67L397.22,58.8L396,61.45L394.75,64.09Z" style="fill:white;fill-rule:nonzero;stroke:black;stroke-opacity:0;stroke-width:1px;"/>
    </g>
    <g id="a1C55ksmrX-2" transform="matrix(1,0,0,1,51,44)">
        <path d="M691.55,54.06C688.36,51.56 685.48,49.24 682.55,47.06C670.666,37.82 655.855,33.139 640.82,33.87C630.71,34.3 621.14,36.67 612.82,42.68C600.11,51.88 595.2,64.56 597.3,79.88C598.35,88 603,94.39 609.38,99.24C613.863,102.704 618.676,105.719 623.75,108.24C633.75,113.08 644.22,117.16 654.31,121.92C663.356,125.979 672.179,130.519 680.74,135.52C687.077,139.424 692.925,144.07 698.16,149.36C710.024,161.277 716.692,177.425 716.692,194.24C716.692,211.173 709.931,227.424 697.92,239.36C695.652,241.62 693.215,243.702 690.63,245.59C674.31,257.67 655.72,261.59 635.81,260.14C606,258 582.13,244.48 563.56,221.27C562.89,220.45 562.26,219.59 561.65,218.73C561.397,218.216 561.179,217.684 561,217.14L579,201.42C580.26,202.79 581.28,203.93 582.34,205.03C587.42,210.21 592.06,215.93 597.68,220.46C614.8,234.3 634.46,239.11 656.06,234.77C665.884,232.779 674.774,227.583 681.33,220C695.156,204.559 694.69,180.758 680.27,165.87C675.062,160.49 668.931,156.087 662.17,152.87C652.92,148.4 643.42,144.45 634.17,140.1C624.39,135.49 614.65,130.8 605.08,125.8C601.062,123.538 597.247,120.932 593.68,118.01C571.41,100.78 566.82,77.11 575.32,52.84C582.84,31.42 598.75,18.2 620.32,12.84C652.61,4.84 681.32,12.77 706.32,34.72C706.679,35.194 706.993,35.699 707.26,36.23L691.55,54.06Z" style="fill:white;fill-rule:nonzero;stroke:black;stroke-opacity:0;stroke-width:1px;"/>
    </g>
    <g id="a8k0rN94A-2" transform="matrix(1,0,0,1,51,45)">
        <path d="M999.62,256L999.26,256.1L998.86,256.19L998.43,256.28L997.96,256.36L997.47,256.44L996.94,256.51L996.39,256.58L995.81,256.65L995.21,256.71L994.58,256.77L993.93,256.82L993.27,256.87L977.66,256.87L976.97,256.82L976.31,256.77L975.66,256.71L975.04,256.64L974.43,256.58L973.85,256.5L941.57,187.14L823.67,187.14L823.61,187.27L823.54,187.4L823.48,187.53L823.41,187.66L823.35,187.8L823.28,187.93L823.22,188.06L823.15,188.19L823.08,188.33L823.02,188.46L822.95,188.6L822.88,188.73L822.82,188.87L822.68,189.14L822.61,189.27L822.47,189.55L822.41,189.68L821.92,190.66L821.86,190.8L821.51,191.5L821.45,191.64L821.31,191.92L821.24,192.07L821.18,192.21L821.04,192.49L820.97,192.64L820.28,194.13L819.58,195.62L818.88,197.12L818.19,198.61L817.49,200.11L816.09,203.09L815.39,204.59L814.7,206.08L814,207.57L813.3,209.07L811.9,212.05L811.21,213.55L810.51,215.04L809.81,216.54L809.11,218.03L808.42,219.52L807.72,221.02L807.02,222.51L806.33,224.01L805.63,225.5L804.94,227L804.24,228.49L803.55,229.99L802.86,231.48L802.16,232.98L801.47,234.47L800.09,237.47L799.39,238.96L798.7,240.46L798,242L797.31,243.5L796.62,244.99L795.24,247.99L794.56,249.49L793.87,250.99L793.19,252.49L793.07,252.74L793,253L792.88,253.24L792.76,253.47L792.64,253.69L792.51,253.9L792.39,254.11L792.26,254.31L792,254.69L791.86,254.87L791.58,255.21L791.44,255.36L791.14,255.66L790.99,255.8L790.83,255.93L790.67,256.05L790.5,256.17L790.33,256.28L790.16,256.38L789.98,256.48L789.8,256.57L789.42,256.73L789.22,256.8L788.8,256.92L788.59,256.97L788.37,257.02L766.07,257.02L766.07,256.97L766.01,256.87L770.32,247.47L774.59,238.18L778.82,228.99L782.99,219.91L787.11,210.91L791.18,202.06L795.18,193.33L799.18,184.73L803.07,176.27L806.9,167.94L810.66,159.75L814.36,151.75L817.99,143.86L821,135L824.49,127.43L827.89,120.02L831.22,112.78L834.47,105.72L837.64,98.83L840.72,92.13L843.72,85.62L846.63,79.3L849.44,73.18L852.16,67.26L854.79,61.55L857.32,56.06L859.75,50.78L862,45.73L864.22,40.9L866.34,36.3L868.34,31.93L870.23,27.81L872.02,23.93L873.69,20.3L875.24,16.93L876.67,13.82L878,11L879.19,8.42L880.25,6.11L881.18,4.11L881.18,2.62L881.23,2.56L881.23,2.09L881.28,2.03L881.28,1.91L881.33,1.85L881.33,1.67L1000,255.88L999.62,256ZM880.12,64.1L878.9,66.75L877.68,69.39L876.46,72L875.25,74.63L874,77.29L872.78,79.92L870.36,85.16L869.16,87.78L868,90.4L866.78,93L865.58,95.62L864.37,98.23L863.17,100.83L861.97,103.44L859.57,108.64L858.37,111.25L857.17,113.84L853.57,121.64L852.37,124.23L851.18,126.83L848.78,132.01L847.59,134.61L845.19,139.79L844,142.39L842.8,144.99L840.4,150.17L839.21,152.77L838.01,155.36L834.41,163.16L930.41,163.16L929.21,160.55L928,158L926.8,155.4L924.42,150.2L923.23,147.61L922.04,145.01L920.85,142.42L919.66,139.82L917.28,134.64L916.1,132L913.72,126.82L912.53,124.22L911.34,121.63L910.15,119L908.96,116.4L907.77,113.81L905.39,108.61L904.2,106L903.01,103.4L901.81,100.8L899.43,95.58L898.23,93L897,90.4L895.8,87.79L894.61,85.17L893.41,82.55L892.2,79.93L889.8,74.67L888.62,72L887.41,69.37L886.2,66.72L885,64.11L883.79,61.46L882.57,58.8L881.35,61.46L880.12,64.1Z" style="fill:white;fill-rule:nonzero;stroke:black;stroke-opacity:0;stroke-width:1px;"/>
    </g>
</svg>
