<svg id="Layer_1" data-name="Layer 1" xmlns="http://www.w3.org/2000/svg" viewBox="0 0 939.31 243.17"><title>logo</title><path d="M-190.82-145.64c.43-30.69,7.71-56,25-77.65,23.48-29.51,54.66-43.26,92.09-42.89,30.09.29,56.44,10.54,78.18,31.56,19.14,18.5,30,41.33,33.65,67.59,3.27,23.76,1,47-9.1,68.92-18.1,39.2-48.91,61.45-91.79,66.37-29.08,3.34-56.08-3.09-80-20.19C-169-70.61-183.86-96.46-189-128-190.14-134.87-190.45-141.88-190.82-145.64ZM-75.57-53.49c38-.09,70.46-22,84.23-57.26a103.69,103.69,0,0,0,5.47-56c-7-41.86-39.11-72.68-79.66-76.38-35.79-3.28-64.87,9.25-85.24,39.22-15.77,23.23-19.3,49.26-14.09,76.54C-156.53-83.72-119.71-53.38-75.57-53.49Z" transform="translate(190.82 274.05)"/><path d="M237.62-99.82H127c-.75,1.52-1.51,3-2.2,4.48-8.87,19-17.82,38-26.51,57.06C96.84-35,95-33.9,91.54-34c-6.3-.26-12.62-.07-18.73-.07-.27-.5-.36-.65-.42-.8s-.13-.34-.08-.46Q126.64-153.55,181-271.72a22.53,22.53,0,0,1,1.53-2.33L293.1-34.11c-5.46,0-9.9.07-14.32,0-3.46-.07-7.58.75-10.18-.84-2.41-1.47-3.27-5.56-4.68-8.57Q252-69.1,240.08-94.68C239.31-96.34,238.5-98,237.62-99.82ZM137.09-122.3c12.44,1,85.82.59,89.85-.57l-44.65-97.41C167-187.09,152.15-155,137.09-122.3Z" transform="translate(190.82 274.05)"/><path d="M638.44-274l110,238.84c-3.84,1.26-17.42,1.54-24.51.59L693.61-99.72H582.86c-.79,1.62-1.7,3.37-2.53,5.16-8.73,18.71-17.52,37.4-26.08,56.18-1.45,3.19-3.14,4.53-6.71,4.35-6.31-.3-12.65-.08-18.8-.08-.24-.43-.34-.57-.4-.72s-.19-.35-.14-.45q54.34-118.23,108.71-236.43A23.51,23.51,0,0,1,638.44-274Zm-.26,53.74c-15.33,33.22-30.2,65.45-45.23,98h90.16C668.14-154.89,653.41-187,638.18-220.28Z" transform="translate(190.82 274.05)"/><path d="M473.4-241.48l-14.64,16.74c-3-2.34-5.7-4.52-8.46-6.6a59.25,59.25,0,0,0-39.2-12.39c-9.5.41-18.49,2.63-26.3,8.28-11.94,8.64-16.55,20.55-14.58,34.94,1,7.63,5.33,13.66,11.36,18.21a80.66,80.66,0,0,0,13.49,8.49c9.44,4.55,19.23,8.38,28.71,12.85a260.71,260.71,0,0,1,24.83,12.78,88,88,0,0,1,16.36,13,59.75,59.75,0,0,1-7.07,90.35c-15.33,11.35-32.8,15-51.5,13.67-28-2-50.42-14.71-67.86-36.51-.63-.77-1.22-1.58-1.8-2.39a12.24,12.24,0,0,1-.61-1.49L353-86.32c1.19,1.29,2.14,2.36,3.14,3.39,4.77,4.87,9.13,10.24,14.41,14.5,16.08,13,34.55,17.51,54.84,13.44a42.57,42.57,0,0,0,23.77-13.88,37.3,37.3,0,0,0-1-50.84,58.61,58.61,0,0,0-17-12.18c-8.69-4.2-17.61-7.91-26.34-12-9.18-4.33-18.33-8.73-27.32-13.43a74.83,74.83,0,0,1-10.71-7.32c-20.92-16.18-25.23-38.42-17.24-61.21,7.06-20.12,22-32.54,42.24-37.6,30.33-7.57,57.33-.07,80.73,20.55A8.41,8.41,0,0,1,473.4-241.48Z" transform="translate(190.82 274.05)"/></svg>