<svg id="Layer_1" data-name="Layer 1" xmlns="http://www.w3.org/2000/svg" viewBox="0 0 1465.48 525.45"><title>Artboard 1</title><path d="M48.43,453.88c4.6-5.76,7.22-12.6,10.35-19.14,4.38-9.14,7.53-18.92,12.14-27.83,4.31-8.35,9.47-16.34,13.54-24.89C95,359.82,106,337.78,116.1,315.38c2.7-6,6.09-11.78,7.47-18.42.47-2.25,2.53-4.23,4.05-6.19,11.06-14.29,19-30.44,27.7-46.16,12.55-22.7,25.2-45.33,36.94-68.47.44-.87.8-1.79,1.29-2.92-2.22-.61-4,.18-5.78.91s-3.65.8-4.19-1.19c-.68-2.54,1.58-2.2,3.19-2.47,4-.67,8-.9,11.64-3.77,1.78-1.4,5.44-.88,8.26-1.43a109.45,109.45,0,0,0,18.66-5.39,76.67,76.67,0,0,1,19.27-5c6.07-.69,11.41-3.72,16.69-6.44a60,60,0,0,1,24.26-7c6.05-.35,11.8-2.13,17.43-4.06,7.44-2.54,14.94-4.76,22.77-5.32,11.15-.79,21.09-6,31.75-8.3q31.22-6.77,61.86-15.63C440.58,102,462,96.34,483.19,90.26c11.4-3.26,23.43-3.28,34.69-7.12a138.07,138.07,0,0,1,33.59-6.78c8.12-.67,16-4,24-6,2-.51,1.27-1.51.68-2.56a1.89,1.89,0,0,1,.34-2.68c1-.77,2,0,2.56.78,1.64,2.09,3.34,3,6.26,2.41,2-.42,3,1.23,1.32,3.15-.66.73-1.85,1.26-1.59,2.34,1.21,5-.1,10.19,2.25,15.34,9.71,21.32,18.88,42.89,28.17,64.4,1.51,3.5,2.56,7.19,3.93,10.75.52,1.34,1,2.38,3.18,2.22,10.72-.77,21.48-1.74,32.2-1.52,10.27.21,19.57-3.26,29.14-5.81,2.56-.68,5.1-1.72,7.72-1.76a97.12,97.12,0,0,0,31.65-6c6.42-2.31,13.09-2.24,19.73-2.32A58.85,58.85,0,0,0,759.32,147c8.94-2.65,18.16-1.73,27.28-1.83,3,0,4.83-.34,2.7-3.78-.89-1.45-1.2-3.12.68-3.72,2.06-.66,1.59,1.58,2.06,2.6s.28,3,1.87,3.23,2.67-1.07,3.22-2.61a3.19,3.19,0,0,1,.73-1.3c1.53-1.39,1.44-5.65,4.39-4.05,2.54,1.38-.9,3.61-1.08,6.14,1.07.67,3.94-1,4,1.67,0,2.86-2.79,1.94-4.21,2.3-4.85,1.25-5.81,2.53-4.4,7.34,3.94,13.45,10.27,26,15.05,39.1.88,2.42,2.28,2.41,4.27,1.76,4.56-1.48,9.09-3.13,13.74-4.27a54.82,54.82,0,0,1,17.71-1.73c7.78.64,15.26-3.1,23.15-3.17,9.73-.08,18.92-4.26,28.5-4.53,26.44-.73,52.42-5.91,78.82-7.39,17.81-1,35.55-4.74,53.51-5.88,6.73-.43,13.28-3.1,20-4,17.13-2.35,34.29-4.55,51.48-6.32q19.4-2,38.44-5.88c12.18-2.48,24.59-1,36.78-2.86,4.58-.71,9.28-.6,13.93-.9,2.34-.15,4.69-.3,5.93-2.85.46-.94,1.31-1.63,2.43-1.08,1.34.66,1.23,1.81.74,3-.25.62-.33,1.46-.79,1.81-6.18,4.67-3.43,10.07-1.41,15.48a125.28,125.28,0,0,1,6.72,24.38c1,6.38,3.24,8,10,8.05,9.7.13,19.2-1.23,28.77-2.76,10-1.61,20.2-1.8,30.29-2.86,4.64-.49,9.16-1.87,13.89-.51,1.1.32,2.55,0,2.78,1.38.29,1.82-1.29,1.59-2.4,1.52-4.93-.35-6.29,1.79-4.66,6.32,4.28,11.88,8.7,23.72,12.7,35.7,6.89,20.61,16.09,40.47,20.91,61.75,5.16,22.77,14.06,44.37,20.31,66.78,4,14.23,8,28.45,13.11,42.3a372.53,372.53,0,0,0,21,46.58c.75,1.4,2.12,3.42.27,4.43-2.26,1.22-3-1.05-3.68-2.81s-.82-3.79-3.44-1.64c-1,.8-2.09-.64-3.17-1-4.3-1.37-7.26.5-9.6,3.9-1.53-4.8-4.92-5.23-9.14-4-3.88,1.14-7.85,1-11.87,1a222.65,222.65,0,0,1-27.74-1.78c-1.22,1-.33,1.87,0,2.75,3.72,11.65,2.46,24.36,7.52,35.74.32.73.48,1.91-.46,2.13-1.73.42-2.37-1.14-2.67-2.35-1.44-5.64-2.69-11.32-4-17-.35-1.45-.81-2.88-1.26-4.32-1.4-4.56-6.34-6.46-10.8-4.07-.64.34-1.18.78-1.68.17-4-4.92-9.92-3.49-14.86-3.53-10.13-.09-20.19-.44-30.15-2.26-3.69-.67-5.1.88-5.85,4.22a97.13,97.13,0,0,0-2.23,11.24c-.14,1.32-.66,2.89-2.27,2.86-2,0-1.64-1.9-1.4-3,.6-2.76-.54-4.47-2.32-6.52a33.29,33.29,0,0,1-5.44-8.91c-1.48-3.49-3.57-4-7-3.48-9.27,1.39-9.3,1.23-11.26,10.55-.86,4.06-1.54,8.17-2.51,12.2-.28,1.17-.76,2.9-2.42,2.79-2-.14-1.34-2-1.41-3.16-.34-5.65-.54-11.3-.91-16.95-.14-2.11-.71-3.84-3.65-3.34-6.44,1.11-12.94.28-19.39,0-3.44-.14-4.34,1-4.5,4-.26,4.65-.66,9.3-1.07,13.95-.09,1.12-.1,2.62-1.53,2.82-1.84.26-2.06-1.43-2.28-2.67-.86-4.75-1.83-9.5-2.32-14.29-.37-3.6-1.33-5.25-5.49-4.9-14.42,1.21-28.88,2.1-43.33,2.93-5.47.31-11,.16-16.46.19-3.65,0-7.25,1.2-10.69,1.4-4.73.29-4.92,3.61-6.71,6.09-.84,1.16-.9,3.83-3.34,2.56-1.88-1-.77-2.52-.08-3.86.87-1.72,1.28-3.44-1.57-3.24-12.63.9-25.11-2.14-37.8-1.25-4.59.32-5.62,2-6.34,5.55-.58,2.9.72,7.94-2.91,7.89-2.73,0-1.7-5.22-1.53-8,.3-5.11-1.95-6.47-6.44-5.85-.32,0-.66,0-1,0-8.63.22-8.58.21-8.41,8.74,0,1.45,1.09,3.86-1.33,4.11-2,.22-1.63-2.05-1.93-3.44-2-9.22-2-8.81-11.53-9.07-13.77-.38-27.47-2.08-41.28-2a221.82,221.82,0,0,0-22.32.86c-1.89.2-1.64.82-1.66,2,0,2.68-2.18,2.79-3.39,1.64-2.71-2.58-6.36-2.38-9.29-4.21-1.1,3.19,1.21,3.1,2.88,3.58,1.83.51,4.77.51,3.69,3.35-.92,2.43-2.74-.71-4.33-.25-1.32,1.62,1.69,3.32,0,5-1.42.57-1.87-.61-2.07-1.45-1.28-5.48-5.2-5.56-9.65-5.09-7.49.79-14.86-1.42-22.32-1-2.29.11-5.47-1.77-6.71,2.15-.34,1.09-1.35.81-2,.19-3.87-3.76-7.45-3.53-11,.52-.87,1-2.26.67-3.27.13a9.93,9.93,0,0,0-5.34-.89c-2.28.09-3.77.76-1.61,3.23a12.24,12.24,0,0,1,1.88,2.85,1.85,1.85,0,0,1-.68,2.61c-1.21.68-1.81-.26-2.36-1.1a5.84,5.84,0,0,1-.94-1.75c-1.59-6.71-6.48-7.22-12.17-6.95a31.63,31.63,0,0,1-8.86-1.23c-9.36-2.33-18.44.67-27.52,1.75-9.63,1.14-19.06,2-28.77.94-7.4-.79-14.95-.11-22.43-.2-2.9,0-2.69,1.26-1.5,3,2.44,3.57,5,7.08,7.44,10.63,1.07,1.54,2.45,1.46,4,.95a2.31,2.31,0,0,1,2.93,1.24,2.25,2.25,0,0,1,0,1.88c-.79,1.48-1.95.39-3,.32-9.76-.62-19.34-3-29.35-1.54-2.61.37-6.38-.92-9.59-.85-3.89.09-7.66.94-11.66,0-2.32-.55-5.31-.4-7.12,2.33-.85,1.27-3.14,1.48-2.59-.33,1.32-4.37-1.76-3.28-3.34-2.92-8.68,2-17.57-1.14-26.15,1.08-3.43.88-7-.21-9.68.21-4.89.79-9.64-.41-14.22.45-9.47,1.77-18.91.16-28.35.42-17.59.48-35.22.12-52.81-.48-8.27-.28-16.49.87-24.86-.52-5.88-1-12.21.73-18.33,1.29-3.65.34-7.17.57-10.63-1.32s-7.05-1.66-10.76-1.36c-1.94.16-3.65.29-3.7,2.85,0,.81-.28,1.73-1.35,1.8s-1.37-.86-1.57-1.63c-.52-2-1.65-2.34-3.68-2.35-15.78-.06-31.65.61-47.32-.82-10.46-.95-20.8.42-31.18-.54-3.82-.35-8.41-.52-8.81,5.43a1,1,0,0,1-1.45.87,2.12,2.12,0,0,1-.86-1.11c-.48-1.17,1-2.57-.57-3.87-2.32,1.29-2.43,3.79-3,5.91-1.14,4.35-3.57,5.72-8,5.16-9.14-1.16-18-4.32-27.47-3.37-6.6.65-12.86-1.8-18.9-3.87-9.42-3.22-19.07-3.1-28.62-2.81a37.16,37.16,0,0,1-15.52-2.58c-10.09-4.31-20.57-4.55-31.09-5.74-17.33-2-34.6-4.84-52.09-4-15.54.7-30.93-2.82-46.28-2.06-16,.8-31.77-2.24-47.66-.47a7.07,7.07,0,0,1-3-.21c-15.32-5.15-31.23-4-46.95-4.11-9.37-.07-18.58-1.2-27.85-2-.74-.07-1.53.49-2.3.76ZM1178.25,206.11c-3.42,1.93-2.88,5.94-4.57,8.8-2,3.35-1.7,3.51,2.56,4.82,1.62-4.47,4-8.84,1.82-13.8,1.2.54,2.07,0,2.16-1.13a50.31,50.31,0,0,1,2.9-12.52c.31-.91.13-2-1.65-2.62C1180.85,195.3,1176.36,200,1178.25,206.11Zm0,19.45c2.81,2.79,4.8,2.84,7.7-.59,2.76-3.26,2.53-5.22-.21-7.82-1.3-1.24-2.42-2.68-4.21-4.7-1.37,4.87-4.26,8.51-3.12,13.29-4.71,3.6-3.94,9.66-6.81,14.09C1180.4,232.81,1181.19,231,1178.23,225.56Zm32,14.1c1.07-6.4-3.8-11.44-3.16-18.09-3.16,1.84-3.67,4.6-5.57,6.2-2.27,1.92-2,3.46-.09,5.76s4.86,4.19,5.29,7.64a73.74,73.74,0,0,1-6.27-6.36c-1.87-2.39-3-2-4.21.37-1.1,2.25-4.28,3.45-3.42,6.68.23.89-.1.88-.89,1.07-4.54,1.06-5.95,3.83-3.76,8.81-2.45-3.45-3.89-1.65-5.27,0-3.84,4.73-7.45,9.65-11.53,14.17-1.85,2-2.1,3.24-.28,5.36,5.27,6.12,10.34,12.41,15.49,18.64a8.7,8.7,0,0,1-4.45-3.07c-4-4.47-7.93-9-11.92-13.42-1.23-1.37-2.42-3.1-4.26-.54-2.9,4-5.79,8.06-8.91,11.92-1.26,1.56-1.2,2.71-.47,4.46,3.33,8,6.29,16.13,9.74,24.07,5.61,12.9,11.25,25.79,17.45,38.4,1.39,2.81,2,6.11,4,8.69,3.94-4.54,6-10.2,10.78-13.68-1.14,3-1.74,6-4.92,8-3.73,2.43-3.55,8.34-2.51,10.64,3.73,8.25,6.15,17.1,10.66,24.91,1.18-.2,1.48-1,1.82-1.74,2.07-4.64,4.51-9.1,3.26-14.59-1.08-4.72,3.64-10-1.42-14.51-.19-.17.44-1.49.89-2.14,1-1.49,2.2-2.89,3.31-4.32,0,2-2,3.46-1.21,6.09,3.33-3.1,4.26-7.79,8-10,.93-.56,1.47-2.91,3.08-1.16,1,1.1.38,2.59-.28,3.72a7,7,0,0,1-2.09,2.11c-7.53,5.09-7.65,12.78-7.85,20.64,2.31.2,2.86-1.95,4.26-2.09,5.59-.6,6.22-3.19,4.09-8-1.27-2.88,1.74-7,5-7.56-1.63,3-2.39,6.35-.46,8.93,3.74,5,8.54,9.08,13.37,13,.51-.51.72-.62.71-.72-.07-1.48-.31-2.95-.25-4.42.3-8.56,1.8-16.6,10-21.52,1-.61,2.22-1.42,2.93.11.54,1.14,0,2.22-1.31,2.81-8.55,3.9-8.56,11.81-9.09,19.46-.07,1,0,2.13,1,2.66,1.44.77,1.89-.81,2.8-1.36,4.93-3,6.18-8.3,8.45-13,2.87-6,4-11.9.58-18.05-10.67-19.3-17.8-40.05-24.87-60.83-.31-.93-.36-2.47-1-2.72-3.67-1.53-3.24-4-3.89-7.58-1.61-8.78-1.45-18.54-9.6-25.37-5.24-4.38-4.3-4.7-8.94.36-4.27,4.64-6.62,11.23-13.19,13.68,1.49-2.34,3.39-4.34,5-6.55,3.65-5.07,9.06-8.72,11.7-14.6l3.85-1.5c-2.61,5.61,3.93,6.46,5.06,10.17a31,31,0,0,0-2-8C1212.87,240.33,1212.2,238.84,1210.18,239.66ZM579.72,106c-5.27,1.43-5.1,6.83-7.8,10.16,3.34-1.12,3.93-5.19,7.62-6.73-2.65,5.24-6.87,8.33-10.06,12.27-1.77,2.18,0,3.34,1.16,4.58,1.79,1.94,2.54-.19,3.35-1.18,2.3-2.81,4.36-5.83,6.73-8.59,3-3.52,5-6.71-1-9.24-.22-.1-.13-.92-.19-1.4,1.2.22,3.08,1.1,2.35-1.36a41.51,41.51,0,0,0-3-6.28C575,101.69,577.78,103.77,579.72,106ZM703,426.68c1.85-.47,3.1,2.82,4.74,1.23,2.23-2.17,4.67-4.67,5.58-7.49.69-2.12-2.62-3.36-4.32-4.84a11.76,11.76,0,0,1-1-1.1c-1.35-1.57-2.2-1.39-4,0-4.79,3.79-4.76,7.61-1.23,12-5.15-4.6-5.15-4.6-9.57.32a5.22,5.22,0,0,1-.71.7c-2.48,1.79-2.41,3.5-.16,5.57,1.8,1.65,3.74,3.32,4.24,5.95-1.63-.32-2.35-1.74-3.32-2.83-4.74-5.35-3.29-5.66-8.8.2-.56.6-.87,1.5-1.51,1.95-4,2.83-3,4.78.34,7.74,5.85,5.25,5.7,5.64,10.49-.59,1.41-1.83,4.49-3.37,2.63-6.64C702.39,438,706.09,431.13,703,426.68Zm-23.54-25.82c6.14-3.34,6.35-4.62,1.39-8.65-.64-.52-1.33-1-2-1.49-4.27-3.45-5.39-3.06-7.2,2.56-1.76-.27-2.86,1.15-4.31,1.7,1.41-2.53,1.88-5-1.05-6.77-3.23-2-4.31,1.42-5.12,2.86-3.84,6.81-11.79,11.09-12.3,19.92,0,.29-.84.85-1,.77-1.85-1.19-3.13-.12-3.16,1.43a3.57,3.57,0,0,0,3.6,3.76c.38,2.3-1.16,3.09-4.3,4.73,1.94-2.73,2.37-4.49.35-5.55-1.72-.89-1.64,1-2.37,1.67-1.79,1.68-1.34,3.15.25,4.57.45.4,1.28.58,1.44,1,4.23,11.89,11.51,22.21,17.09,33.4,1.29,2.58,2.26,2.2,3.75.36,2.8-3.49,5.34-7.26,8.57-10.3s3.81-5.68,1.23-9.13c1.78.16,2.31,3.88,4.18,2.27a59.67,59.67,0,0,0,8.11-9.1c1.56-2-1.73-3.3-1.34-5.31,1.68.76,3,4.36,5.18,1.35,2.06-2.8,7.83-4.55,3.38-9.89,4.07,2.11,6.34,1.08,9-4,1.71-3.34-1.79-3.61-3.24-5-.77-.72-2.08-.87-3.14-1.28-1.58-3.71-5.2-5.35-7.9-7.93-2.35-2.25-3.24-1-4.8.91-1.81,2.19-1.52,3.72.33,5.5,1.32,1.27,3,2.37,3.34,5.39-1.18-1.25-1.72-1.83-2.28-2.4-4.39-4.59-4.18-4.38-8.56,0-2.61,2.61-2.72,4.34-.09,6.81,2.27,2.12,4.17,4.62,6.23,6.95,5.34-4.76,7.94-11.58,13.88-15.38a104.61,104.61,0,0,1-6.78,9.67c-2,2.39-6.46,4.21-4.8,8.84-3.33.67-10.28,8.25-10.81,11.84,0,.29.2.62.31.93-4.23,1.51-6.06,5.25-8.16,8.76-1.42,2.37-2.62,5-6.36,7.23,2.76-4.95,4.59-8.79,7.48-12s4.75-6.49.72-10.18c3.52,3.8,6,2.78,8.14-1.52.86-1.72,2.56-3,3.81-4.56.85-1.05,1.62-2.2.54-3.56-2.16-2.71-4.31-5.45-6.54-8.1-.84-1-1.82-.61-2.49.29-2.56,3.44-5.7,6.64-7.4,10.46-1.3,2.94,3.53,3.9,4.19,6.67a1.23,1.23,0,0,1-.08.49c-3-.24-3.74-5.68-6.87-3.78-2.45,1.48-3.94,4.79-4.14,8.11a1,1,0,0,1-.14.48c-.51.79-.81,2.1-2.08,1.6s-1.12-1.61-.6-2.54a74.24,74.24,0,0,1,4.83-8.12c1.69-2.29,1.3-3.8-.76-5.44A47.94,47.94,0,0,1,652.7,417c-1.78-2-3.06-1.1-4.51.15,2.7-5.29,2.7-5.29,6.2-1.08,6.74,8.09,6.68,8,13.66.2,2.38-2.66,3.85-5.16,1.28-8.43,1.69-.19,2.54,3.93,4.71,1C675.94,406.24,678.76,404.27,679.43,400.86ZM790.59,170.28c1.06.34,2.65,1.23,2.92-.36.77-4.42,4.45-8.72.63-14.13-1.72,4.25-6.25,6.44-5.52,11.45-.69-.29-1.44-.22-1.68.47q-3.93,11.44-7.72,22.91a2.92,2.92,0,0,0,.19,1.92c.37.85.61,2,1.76,2.13s1.31-.86,1.68-1.57c2.94-5.72,5.85-11.45,8.79-17.18C792.75,173.76,792.81,171.82,790.59,170.28ZM884.27,427c3.25,2.69,5.49,2,7-1.93.65-1.68,1.79-3.18,2.56-4.83,2-4.26-.9-12.57-5.26-15.15.92-4.28-2-7.49-3.27-11.12-2.09-6-1.82-5.42-5.93-1.57s-6.2,9.31-10,13.31c-2,2.08-.84,3.67.28,6-2.13-1.09-3.7-2-4.56.33-.68,1.83-3.18,3.29-1,5.7a51.83,51.83,0,0,1,4.69,5.79c2,2.93,3.43,3.34,5.61.06,1.55-2.35,2.56-4-.15-6.2a6.56,6.56,0,0,1-2.82-4.44,19.57,19.57,0,0,1,2.56,2.28c3.21,4.36,5,2.43,7.3-1.09,2.16-3.26,3.25-7.6,7.53-9.18a11.05,11.05,0,0,1-2.93,6.5c-6.73,7.69-6.66,7.75-1.18,15.65-1.7-1.28-3.43-2.53-5.1-3.85-.76-.6-1.37-1.52-2.37-.32-2.42,2.88-5.57,5.58-2.2,9.76-2.27-3-4.38-1.29-6.51.21-.91-2.2,2.87-3.57,1.08-5.86-2-2.59-4.18-5.09-6.26-7.63-.82-1-1.84-1.78-2.74-.36a91.49,91.49,0,0,0-6.44,11.06c-1.14,2.53,2.35,4.08,2.62,6.54-2.15-.64-2.55-3.91-5.36-3.6.55-1.17-.13-2.51.91-3.73,3-3.51,4.81-7.77,7-11.83.69-1.31.87-2-.08-3.4-5.61-8.37-5.64-8.42-11.84-.61-2.06,2.6-5.21,4.81-2.38,9.32-4.28-3-6.25-.21-5.43,2.29,1.73,5.29,3.74,10.72,7.94,14.81-.19,6.12,3.2,11,5.61,16.21,1.7,3.71,3,7.63,8.52,3.55,1.83-1.34,5.49-.23,8.31-.2,1.61,0,3.4,1.17,4.54-.19-6.11-7.79-12-15.28-17.86-22.78,4.51,5.33,7.16,1.94,9.8-2a9.17,9.17,0,0,1,2.27-1.76,7.6,7.6,0,0,1-2.18,4.38c-3.63,3.56-2.93,6.32.45,9.91,5.33,5.65,5.21,6,9.59-.34,1.61-2.34,5.25-4.1,3.49-8C885.85,437.45,887.86,432,884.27,427Zm314.21-216.07c-1,3.17-3.41,5.27-5.53,7.59-1.61,1.75-1.67,3,.13,5,5,5.48,4.88,5.6,9.23,0l1.23-1.57c3.59-4.59,1.08-9.84-5.18-10.85-1.88-7.27-8.64-10.65-12.84-17.53-2.14,9.13-5.88,16.84,2.3,23.59,1.92,1.58,2.74,1.78,4.23-.09C1193.89,214.69,1195.47,212,1198.48,210.92ZM652.59,255.63c.28,1.8.23,3.74.89,5.39,5.4,13.43,8.21,27.62,12.2,41.46,1,3.35,1.65,6.79,3.71,9.7.61.87,1.2,2.64,2.47,1.27,1.79-1.93,4.52-3.74,2.64-7.2-1.1-2-1.94-4.21-2.88-6.33-6.54-14.66-11.78-29.89-19.09-44.21-3.73-10.78-6.4-21.92-11.43-32.26-4.86-10-10.43-19.66-13.19-30.53a80.94,80.94,0,0,0-5.57-15.4c-.4-.85-.51-2.25-1.78-1.94-1.73.43-.92,1.77-.57,2.83,2,5.94,4.15,11.83,5.86,17.85,1.2,4.23,1.28,8.67,3.34,12.82,5.54,11.16,10.36,22.68,16,33.76C647.47,247.17,648.91,252.09,652.59,255.63Zm55.28,175.69c1.94.35,3.23,1.73,4.38,3.08,2.26,2.66,4.28,5.59,8.29,1-3.59,4.11-1.77,6.53,1.29,8.91a36.23,36.23,0,0,1,4.86,4.89c1.21,1.38,2.41,2.47,4.19,1.14s2.73-2.9,1.34-5.11a7.82,7.82,0,0,1-1.55-3.05c-.65-7.24-4.33-12.57-9.85-17s-5.36-4.59-9.33.92c-1.24,1.73-2.37,3.53-3.53,5.32-1.13,1.13-2.35,2.2-3.37,3.42-5.39,6.52-5.3,7.41,1,12.87.72.62,1.54,1.76,2.45.74,2.2-2.46,4.73-4.84,6.11-7.74,1.2-2.53-2.34-3.48-3.47-5.34C709.86,434,708.83,432.66,707.87,431.32Zm16.3,36.33c-1.63-2.18-3.17-2.64-5.09-.15-2.28,3-4.94,5.63-6.74,10.1h40.44c-2.4-3.28-4.07-7.24-7-9.15a22.7,22.7,0,0,1-7.47-7.54c1.21-3.8-1.29-6.66-2.58-9.78-1.06-2.56-2.26-.84-3.2.28-2.76,3.27-5.42,6.63-8.23,9.85C722.34,463.45,721.72,465.49,724.17,467.65ZM668.29,357.81c-1.89,4.09-5.22,7.11-7.93,10.57-1.29,1.64-1.42,2.54.07,4.12,6.7,7.15,7.27,7.2,13.68-.07a5.79,5.79,0,0,1,.71-.69c2.21-1.71,2.35-3.14.33-5.47s-5.07-3.92-5.69-7.33c4.39,1.83,5.29,9.11,12,7.55a5.91,5.91,0,0,1-.65,1.31c-2.12,2.27-4.27,4.51-6.41,6.76-5.11,5.41-4.82,7.22,1.77,10.65a23.23,23.23,0,0,0,2.12,2.67c7.39,7.07,7.18,6.87,13.88-.58,3.43-3.83,4.46-6.74-.28-9.94-1.73-1.17-2.3-5.12-4.82-3.65-3.45,2,1.56,3.84,1.17,6.14-4.4-2.63-4.5-2.71-7.74,1.71a14.38,14.38,0,0,1-4.47,3.81c.32-2.71,2.58-4.14,4-6.15,2.09-3,5.7-4.94,5.85-9.28,0-1.33,2.19.49,3.2-.93.42-.6,1,.33.46,1-1.79,2.47.76,3.08,1.86,4.25.55.59,1.27.29,1.65-.35a4.69,4.69,0,0,0,.22-4.77c-1.49-2.85-3.32-5.44-3.17-9,.06-1.57-1.8-4.69-2.36-4.6-5.8,1-5.44-4.29-7.13-7-4.87-7.73-7.67-16.48-10.9-25-3.56-9.36-4.7-19.62-10.39-28.23-.41-.62-.7-2-.36-2.33,2.75-2.82.62-5.57,0-8.29-.92-4.11-3.47-7.72-4.65-11.53-7-22.63-18.19-43.42-27.66-65-2-4.64-3.27-9.68-6.57-14.35-1.8,2.25-3.51,4.06-4.84,6.12A44.59,44.59,0,0,1,604.35,212c2.5-3.85,5.66-7.22,8.28-10.94,2.81-4,8.52-6.93,6-13.37,1.55-.73,1.24,1.84,3.19,1.27-5.26-16.08-12.43-31.28-19.86-46.62-5.76,6.37-11.61,12.25-16.71,18.72-2.59,3.3-5,6.32-9,7.87,3.42-4,6.83-8.11,10.28-12.13,1.17-1.37,2.95-2.52,1-4.55a3.21,3.21,0,0,0,3.66-.38c4.06-3.36,3.79-10,9.35-12.21.16-.06.14-1,0-1.36q-4.08-9.48-8.21-18.93c-1.22,4.65,2.75,7.89,2.14,12.32l-8.9-18.56c-4,5.13-7.64,9.81-11.3,14.47a2.62,2.62,0,0,0,0,3.59c1.07,1.46,2,3.06,2.91,4.58-3-1.47-4.66-7.63-9.74-2.23.93-1.82,1.91-3,2.59-4.24.54-1-.31-1.87-1-2.57s-1.89-.57-2,.28c-.35,4-8.16,6.21-2.78,11.6.56.56.11,1.34-.71,2-9.78,7.63-14.12,18.9-19.56,29.43-.91,1.75-1.34,3.17,1.33,3.49-6.79,8.39-13.11,24.38-10.92,28.13,8-12.18,17.17-23.25,26.53-34.22.87-1,2.48-2,1-3.81-.29-.36-1-2.15.59-1,2.14,1.56,2.66-.31,3.49-1.2q5.24-5.67,10.26-11.53c2.54-2.95,7-5.29,3-10.56C583,142.55,586.06,142,587,137c.76-4,3-3.37,5.35-3.89a33.44,33.44,0,0,1-5.6,7.4c-2.82,2.71-3.2,5.22-.39,8.05-1.86,0-2.68-4.65-5.08-1.42-2.08,2.8-7.27,4.8-3.15,9.76-1.91.38-3.23-3.57-4.6-.93-2.4,4.61-12,6.44-5.41,15.09-2.76-5-5-4.74-7.38-.72a7.72,7.72,0,0,1-1.74,1.78c-3,2.57-4.22,5.13-.17,7.85,1,.69,1.34,1.29.83,2.8-.57,1.72.71,3.1,2.86,2.94-3.3,4.12.26,6.23,2.49,8.85,5.85,6.88,11.59,13.84,17.37,20.76-6.84-2.59-8.52-10.67-15-14.51.64,1.64,1,2.65,1.89,4.88-3-2.67-4.43-7-8.6-2.66.81-2.58,4-3.33,2.7-5.34-2.45-3.88-5.39-7.21-5-12.45.16-2.29-2-4.75-3.52-7.86-5.61,7-10.89,13.5-16.13,20.07a2.48,2.48,0,0,0-.65,1.75c.66,2.56.86,2.87-.63,3.5-3.07,1.3-2.54,2.86-1.39,5.42,7.78,17.34,17,33.93,25.63,50.85,4.08,8,5.5,17.94,14.36,23.07-1.58,4.38,3.08,4.32,4.73,6.3,4,4.84,9,8.88,11.82,14.66-4.09-1.73-6.81-5.73-12.69-7.13,4.72,6.05,3.68,14.11,10.86,17.79,1.7.87,3.15,2.15.86,4.12-1.2,1-.51,2.08.32,3,2,2.23,3.91,4.46,6.48,7.37,1.22-4.8,6-6.81,5.85-11.69,4.31-1.71,5.52-6.35,8.64-9.14,3.67-3.29,4.4-6.51.25-10.18a17.68,17.68,0,0,1,3.47,2.28c.81.68,1.58,1.41,2.48.29.76-.95.42-1.84-.53-2.53l3,.6c-.47,4.26-4.19,6.27-6.44,9.3-3.19,4.3-5.64,9.44-9.61,12.8-4.27,3.62-2.33,10.52-8,12.91a4.38,4.38,0,0,0,.37,2.25c.93,2,2,3.92,3,5.91,2.91-2.08,3.74-5.53,7.81-7.86-2.26,3.05-2,6-5.14,7.25a3,3,0,0,0-1.56,4.21c3.58,7.26,6.39,14.91,10.92,22.08,3.41-4.42,6.14-9,10-12.67-1.23,4.08-4,7.28-6.4,10.61-2.08,2.84-2.88,5.29-.78,8.57,3.81,6,6.18,12.29,12.9,16.83a58.39,58.39,0,0,1,14.09,13.71c2.4,3.33,4.16,4.21,6.78,0a148.94,148.94,0,0,1,9.55-12.78c2.3-2.91,6.2-5.43,1-9.2,2.46-.68,3.14,4.18,5.67,1.12s-.91-3.87-2.27-5.35c-3.48-3.78-8.08-6.4-11.11-10.66,3.4,1.76,6.73,3.17,9-1.55C662.93,362.1,665.94,360.26,668.29,357.81Zm216.14,86c2.1.72,2.87,2.67,3.91,4.33,2.08,3.28,3.85,3.58,5.89-.12,2.36-4.29,5-8.43,7.52-12.63-.46,4-2.71,8.13,3.8,9.05.82.12,1,1.48.53,2.12-1,1.26-1.8.09-2.38-.55-2.93-3.29-5.17-3.27-6.92,1.1-.48,1.18-1.58,2.1-2.22,3.24s-2.38,2.33-.86,3.92c2.78,2.9,5,6.55,9.91,6.44,3.47-.09,6.95-.06,10.42-.1,3.72,0,3.81-1.65,2.87-4.35a11.35,11.35,0,0,0-.58-1.9c-6-10.53-12.62-20.65-17.9-31.56a1.87,1.87,0,0,0-3.54,0c-1.47,3.84-7.12,7-1.93,11.89-2.11,1.1-3.7-3.25-5.31,0-1.46,2.92-6.09,4.89-3,9.3-1.29.1-2.77-1.77-3.86.42-1.63,3.25-5.9,5.58-5.61,9.06s2.57,6.45,7.85,6.33c4.34-.09,5.11-2.62,6.91-5,2.17-2.9-.93-3.74-2-5.21C886.57,447.71,884.34,446.49,884.43,443.81ZM858,399.38c2.65,1,3.88,3.53,5.78,5.32,1.66,1.57,2.61,2,4.13-.28,3.66-5.46,7.07-11.1,11.43-16.09a5,5,0,0,0,.66-6.28c-3-5.53-5.54-11.27-8.1-17-1.71-3.83-3.09-3.51-5.54-.42-5.9,7.44-12.13,14.62-18.22,21.91.78-1.63,1.3-3.47,2.39-4.86,5.08-6.53,10.2-13,15.55-19.34,2.09-2.46,2.64-4.35,1-7.45A96.08,96.08,0,0,1,860,338.5c-2-6.39-7-10.23-10.84-15a3.19,3.19,0,0,0-3.61-.92c2.86-3-2.59-4.09-1.48-7.27,5.51,8.12,14.22,12.8,18.87,21.36-8.79-22.14-17.68-44.07-28.14-65.7a2.67,2.67,0,0,0-.19,2.89c3.36,10.76,6.68,21.53,10.13,32.26.66,2.06,1.43,3.85-1.33,4.84a9.05,9.05,0,0,0,0-2.9c-3.82-10.59-6.86-21.42-9.89-32.25-.28-1-.68-1.87-1.88-2l.14.11c.75-3.66-1.62-6.68-2.1-10.09-.36-2.55-1.65-3.37-4.4-1.15,3.5-2.85,2.14-5.64,1.11-8.41-.8-2.17-1.45-4.41-2.41-6.5-3.58-7.79-6.51-15.94-12.21-22.59l.06,0c2.3-5.44-1.83-9.17-3.34-13.64-2,.77-1.92,3.67-5.94,3.79,4.08-2.84,3.63-5.54,1.45-8.35,1.72,0,1.68,2.27,3.24,1.37-.29-1.48-.56-2.91-.83-4.36l-.1.1c2.29.64,2.42,2.84,3.2,4.53,3.32,7.16,6.18,14.51,9.26,21.77,6.27,14.84,13.18,29.42,19.87,44.09,3.31,7.25,6.72,14.45,10.09,21.68a41.68,41.68,0,0,0-4.24-16.9,183.55,183.55,0,0,1-13.18-33.84c-1.36-5-3-10-7.68-13.47a14.7,14.7,0,0,1-5.89-8.85c2.85.86,2.7,3.86,5.36,4.07-2.84-7.36-5.4-14.66-8.54-21.71-1-2.25-.22-6.44-4.84-6.26-.73,0-.78-1.29-.34-2.12a3.53,3.53,0,0,0,.32-3.28c-3.8-9.3-7.49-18.63-11.36-28.3-3.52,5.58-3.53,10.18.92,14.7a63.37,63.37,0,0,1,6.28,8.36c.63.91,1.3,2.3-.19,3-1.17.52-1.59-.89-2.09-1.64-2.86-4.32-5.67-8.67-8.93-13.69-2.88,6.4-5.36,12-8.74,17.12-1.14,1.73-3.21,3.32-1.58,6.22.95,1.68-.58.57-1,.28-1.39-.91-1.79.35-2.21,1.09-4.42,7.77-8.9,15.49-13.08,23.38-1.19,2.24.54,4.5,2.35,5.45s2.07-1.53,2.9-2.61c1.07-1.42,1.31-3.43,3.29-4.56.92,5.25-8.46,8.06-2.3,14.2-4.75-1.21-4.84-5.9-7.9-7.75-1.13,1.78-2.19,3.46-3.26,5.12-1.89,3-1.42,7.16.55,8.27,4.45,2.51,3.82,7.43,6.59,10.51.72.79,1.8,1.79,1,3.27-2.35-1.14-2-4.05-4.14-5.2-.5,1.53.29,2.69.74,3.9,3,8.08,6.24,16.1,9.09,24.25,7,20.06,14.45,39.9,27.68,56.93.44.57,1.19,1.26.65,2.26-2-.09-2.25-2.63-4.48-3,3.38,9.22,8.39,17.51,11.18,26.71.26.85.7,2.2,2,1.43,1.1-.65,2.37-1.66,1.9-3.18a22.37,22.37,0,0,0-2.06-3.91c4.2,1.81,6.5,3.82,1.82,7.62-2.43,2-1.2,4.36-.3,6.8,5,13.57,12.14,26.06,19.37,38.52,1.23,2.13,4.56,2.58,4.26,5.72-1.49.14-1.47-2.88-3.79-1.55.49,1.5.72,3.2,1.58,4.48.71,1.06.18,4.06,2.75,2.82,2-.94,1.25-2.73.13-4.22a10.9,10.9,0,0,1-.85-1.71c1.74-.31,3,3.2,4.05,1.56,2.94-4.54,8-7.71,8.87-13.6,3.51-1.06,6.2-2.55,3.71-6.85,1.25,1.58,2.47,2.13,3.93.16,2.16-2.93,4.35-5.83,6.63-8.67,2.74-3.43,5.57-6.77,8.37-10.16-.34,4.42-3.63,6.5-5.93,9.34-3.41,4.2-6.69,8.5-10,12.75-5.18,7.63-4.69,4.37.58,11.74,2.43,3.39,3.8,2.2,5.42-.77,1.35-2.47-.23-3.86-1.52-5.16C860.72,403.42,858.8,401.86,858,399.38Zm400.48,17.4c-3.52.68-4-2.31-5.3-4.36-2.75.17-4.39,1.63-5.55,4.12a22.58,22.58,0,0,1-4.17,6.75c-1.59,1.55-2.77,4.65-5.94,3.63-3-1-4-3.55-4.8-6.43-3.16-12.08.19-23.39,3.79-34.7.43-1.35,2.09-3.38.69-4.05-6.22-3-9.66-9.37-16-12.62-.92,3.1,0,8.41-.51,8.59-7.09,2.66-4.21,7.44-3,11.91a8.73,8.73,0,0,1,.14,2c.28,7.89-.35,15.61-4.14,22.75-.46.89-1.16,1.73-.34,2.71.33.41.71.32,1.18-.08,3-2.53,2.33,0,2.23,1.65-.1,1.79-1.28,3.42-.55,5.34,3.14,8.24,6.45,16.41,8.71,24.95.57,2.16,2.41,2,4.08,1.88,2.15-.18,1.5-1.86,1.38-3.05-.57-5.8-1.31-11.58-1.83-17.39-.13-1.42-1.19-3.88,1.36-3.92,1.74,0,2.65,2.15,2.21,3.86-1.46,5.72.65,11.26.51,16.9,0,2.06.42,3.7,3,3.56,2.08-.1,4.56.56,5.09-2.59,1.28-7.57,5-14.46,6-22.11.1-.8.4-1.62,1.62-1.43,1.23,1.42.59,3,.54,4.64-.17,6.14-4.5,10.94-5.17,16.92-.25,2.2-1.82,4.56,2.45,3.47,1.51-.38,2.18,1.4,1.88,2.31-1.13,3.51,1.35,3.29,3.39,3.69,11,2.14,22.15.19,33.67,2.54-1.06-4.3-5.15-5.81-5.67-9.42,2.76,1.71,4.65,4.29,6.39,6.88a6.43,6.43,0,0,0,6.86,3c2.41-.41,4.64-.63,7.12.54-3.13-2.31-.91-9.79-8.2-7.76-.69.19-1.89-1.17-2.75-1.93-1.49-1.3-2.89-2.7-4.33-4.06,3.16.3,4.71,3.41,7.49,4.45,1.17-3.91,1-3.87.13-7.25-4.18-16.15-11.71-31-18-46.31-3.71-9-9.3-17.15-12.23-26.52-1.42-4.53-2.78-9.08-6-13.56-2.62,5.56-3.35,11.31-6.59,15.94-1.5,2.14-2.11,4.11.15,6.09-5-.24-8.18,2.7-9.84,6.75-3.51,8.62-6.08,17.54-5.75,27a28.51,28.51,0,0,0,2.05,9.66c1.47,3.71,3.18,3.21,5.26.67.62-.76,1-1.68,1.67-2.44,4.15-5.13,5.69-11.59,8.63-17.33,2.22-4.33,5.67-9.58,0-14.31-.11-.09.09-.54.15-.83,1.37,0,1.63,2.27,3.4,1.65.53-1.83.64-3.83-1.16-4.82-2.59-1.42-3.32-3.93-4.57-6.18,1,.65,1.86,1.36,2.85,2,4.13,2.54,7.17,5.28,5.61,11.08-.55,2-.67,4.2-1.57,6.31-2.59,6-5.39,12.23,1.52,17.53C1258.1,415.38,1258.21,416.19,1258.48,416.78Zm67.81-34.21.13.15c-.55-6.18-3.56-11.71-4.74-17.73-1.62-8.27-4.66-10.48-12.78-8.17-5.25,1.49-10,.64-15.12-.41a90,90,0,0,0-22.17-1.92c-3.79.16-4.88,1.67-3.63,5.44,3.37,10.25,7.77,20.12,11.79,30.08q10.24,25.38,19.36,51.15c1.49,4.19,3.84,6.57,8,7,14.19,1.32,28.39,2.81,42.6-.68a8.09,8.09,0,0,0-.26-1.49c-5.8-15.34-12.35-30.4-16.86-46.24C1330.94,393.91,1330.12,387.63,1326.29,382.57Zm-290.74-14.64c2.44.44,3.09,2.33,3.37,4.38.47,3.46,1.2,6.94,1.15,10.4-.18,14.19-1,28.28-10.59,40a3.34,3.34,0,0,0-.82,2.24c0,10.17,1.36,20.24,2.24,30.34.07.82.27,1.69,1.41,1.6.79-.05,1.08-.67,1.26-1.33a20.85,20.85,0,0,0,.69-2.91c1.4-11.39,2.85-22.77,4.09-34.18.47-4.29.13-8.67,1.42-13.3,1.68,2.37,1.3,4.57,1.2,6.68a298.09,298.09,0,0,1-4.4,40.64c-.48,2.52-1.37,5.35,2.87,4.95,12.82-1.19,25.55,1.26,38.35.76,3-.12,4.62-1.44,5.49-4,6.2-18.38,14.1-36.1,19.93-54.66,5.11-16.23,12.49-31.78,19.22-47.47,4.94-11.5,7.91-23.61,11.92-35.38,5.28-15.49,11.52-30.65,16-46.43.12-.44,0-1-1-1-2,1.57-2.48,5.46-6.22,5.28l.11.12c1.77-2.41,3.21-5.17,5.38-7.15,3.78-3.46,5.52-7.84,6.72-12.53a77.43,77.43,0,0,1,4.81-14.13c.48-1,1.12-2.32.86-3.26-.69-2.45-.78-2.32.56-3.78,3.81-4.14,5.13-9.56,7.12-14.59,1.29-3.25-3-4-3.55-6.55-.06-.26.17-.59.28-1,2.76-.93,2.8,3,5.54,2.88,4.89-14.46,9.41-29.2,15.08-43.53a17.4,17.4,0,0,0,.74-5.89c.06-2.76,0-5.37,2.52-7.39,2.12-1.71.74-3.8.14-5.84s-2.18-1.82-3.59-1.74c-14.75.85-29.6,1-44.21,2.9-10.65,1.39-21.23,3.89-31.91,5.22-19.94,2.5-40,4.43-59.83,7.37-6.59,1-12.79,3.76-19.49,4.13-17.29,1-34.5,2.38-51.53,5.84-9.8,2-19.89.91-29.82,1.52-15.38,1-30.27,6.45-46,5.05-2.57-.23-5.26.72-7.88,1.21-17.69,3.35-35.41,6.68-53.48,6.86-8.61.08-15.79,4.81-23.92,6.22-3.48.6-3.49,1.89-2.35,5,6.63,18.07,16.11,34.94,21.43,53.6,4.32,15.13,13.67,28.51,16.2,44.38a30.77,30.77,0,0,0,4.62,12.06c7.4,11.16,11.76,23.77,17.65,35.65,11.82,23.83,23.51,47.6,31.42,73.16a128.66,128.66,0,0,0,14.6,31c1.19,1.85,2.67,2.14,4.42,2.67,7.68,2.33,15.45.91,23.22,1,18.56.33,37.12,1.42,55.68,2.29,2.63.12,3.46-.37,3-3.33-1.82-11.31-3.2-22.67-6.7-33.65-1.27-4-2.51-9.27-.27-12.14,3.17-4.07,2.18-8,2.39-12,.33-6.15.09-12.34.46-18.48.22-3.8-.08-8.49,2-11.13,3.81-4.92,3.26-10.44,4.41-15.73a14,14,0,0,1,3.75-6.92c.59-.6,1.43-1.07,2.22-.45.47.37,1.07,1.37.91,1.58-1.35,1.87-.47,4.25-2,6.26-4.9,6.31-3.62,13.81-3.39,21.12,4.41-6.82,6.15-14.55,8.61-22a1.22,1.22,0,0,0-.57-1.69c-.81-.36-2.34-.48-1.1-1.82a4.49,4.49,0,0,1,2.69-1.05,1.65,1.65,0,0,1,1.85,1.87,65.29,65.29,0,0,1-1.44,7.32c-1.72,6.91-4.16,13.1-3.48,21.07,1.34,15.89-3.11,31.36-11.86,45.16-.68,1.09-.44,2.24-.3,3.4.85,6.94,1.48,13.91,2.68,20.79.43,2.46-.24,5.48,2.33,8,1.43-10.21.09-20,2-29.61,1.5,7.2.93,14.45.86,21.67-.1,11.41-.15,11.29,11.47,11.51,3.05.06,3.48-.75,3.38-3.64-.42-12.07-2.76-23.94-3.65-36a169.33,169.33,0,0,1,1.63-41.13c.92-5.45,2.24-10.58-.33-16.46-2.35-5.36-1.05-11.59,4.23-15.78,1.12-.88,2.42-3.13,4.06-.94,1.49,2-.88,2.24-1.89,3.12a12.55,12.55,0,0,0-2.86,16c1.63.29,1.57-3.08,3.46-1.77s-1.7,2.81-.08,4.31c6.68-3.73,9.46-16.92,5.11-24.74,3.69-.53,4.16,2,4.44,4.5a30.32,30.32,0,0,1-6.92,23.47c-3.52-.65-5.41.39-6.24,4.29a154.55,154.55,0,0,0-3.19,36.19c.09,3.64,0,7.58,2.59,10.81,1.81-1.25,2.33-3,3.05-4.67C1038.4,399.49,1039,383.88,1035.55,367.93ZM113,448.12c-2.63,2.68-5,4.67-5.83,7.58-.61,2-.48,3.18,2.31,3.6,11.28,1.67,22.51,3,34,3.71,17.56,1.13,35.19-1.32,52.67,1.68a73.88,73.88,0,0,0,11.4.94c13.46.19,26.9-.6,40.39.83,10.05,1.07,20,3.06,30.15,3.41,7.76.26,15.68.35,23,3.38A61.19,61.19,0,0,0,327.28,478c5.76-.22,12-.48,17.28,1.32a116.32,116.32,0,0,0,38.69,5.87c4.91,0,9.22,2.73,14.19,2.06,2.3-.31,3.35-.82,4-3.29.79-3,.77-6.27,2-9,4.13-8.84,9.41-17.2,13-26.25,4.36-11.1,7.33-22.73,11.08-34.07,2.94-8.86,8.67-16.47,11.64-25.35,3.84-11.49,7.5-23.05,11.7-34.41,7.23-19.52,17.92-37.47,26-56.62,10-23.59,21-46.69,34.49-68.57,8.49-13.79,12.48-29.58,19.13-44.19A153.73,153.73,0,0,0,537.43,169c1.61-5,6.37-8.71,4.93-15.27-.52-2.38,4.78-5.61,6.27-9,2.82-6.32,10.57-12.73.41-19.94,3.22.92,4.17,3.95,7.14,4.57,3.47-7.93,7.33-15.69,10.25-23.79C568.88,98.78,574,92.85,573.3,85c-.11-1.18.71-1.5,1.79-1.9,2.43-.87,5.36-6.66,4.23-8.38-1.71-2.59-4.26-.78-6.36-.57-1.94.2-3.77,1.28-5.69,1.78-4.64,1.23-9.26,3.12-13.95,3.34-10,.46-19.83,1.43-29.35,5-5.57,2.1-11.51,3.15-17.38,4.38-6.19,1.29-12.51,1.48-18.65,3.23-23,6.53-46.14,12.52-69.1,19.14-20.61,6-41.41,11-62.29,15.88-11.11,2.59-21.71,7.34-33.26,8.43a44.93,44.93,0,0,0-9.83,1.56c-11.21,3.58-22.39,7.21-34.28,8.22-5.77.49-11.18,2.68-16.41,5.53-6.52,3.57-13.2,7-20.94,7.54-5.67.41-11,2.38-16.32,4.41a94.5,94.5,0,0,1-18.14,5.33c-5.88,1-10.41,3.75-13.19,9.86-4.32,9.51-9.69,18.56-14.72,27.75-8.93,16.33-18.49,32.35-26.77,49s-20.29,31.32-27.85,48.54c-7.67,17.48-16.73,34.33-24.68,51.69-9.26,20.23-19.76,39.85-29.29,60-6.13,12.92-12.64,25.66-19,38.47-1.17,2.34-.07,4.17,2,3.66,6-1.48,11.43,2,17.1,1.74a274.11,274.11,0,0,1,30.34.72c1.85.12,3.06.5,3.11-2.66C104.51,452.38,105.35,447.3,113,448.12Zm473.66-107c-2.17,2.32-4.25.53-6,1.09-3.43,1.08-7.92-3.26-9.84,0-1.65,2.85-.23,7.46-.23,11.28,0,10.14.77,20.33-.75,30.39-1.74,11.41-2.51,22.77-1.11,34.28,1.12,9.25,1.86,18.56.48,27.87-1.34,9-2.75,18-2.17,27.25.26,4.23,1.5,4.8,5.21,4.73,11.64-.19,23.29,0,34.93.07,20,.15,40.12,2,60.59-2.17l-6-10.43c-2.32.66-1.91,3.75-4.25,4a1.74,1.74,0,0,1,.09-2.71c3.87-3.37,2.67-6.75.53-10.51-5.3-9.35-10.39-18.81-15.58-28.25-.57.37-.94.47-1,.68-.55,1.39-1.06,3.42-2.93,2.37-1.58-.9,0-2.35.68-3.36.79-1.28,2-2.39.93-4-7-11.43-11.83-24-18.43-35.74-3.8-6.74-10.3-11.47-11.83-20.17-1.32-7.48-6.39-14.3-9.78-21.35-1.5.34-.47,2.61-3,2.24,1.33-3,2.27-5.86.5-9.15-5.28-9.84-8.85-20.58-15.52-29.7-.58-.8-1.42-1.82-1.32-2.64.82-6.59-2.93-11.85-5.77-17-1.68-3-2.86-6.31-4.75-9.2A108.83,108.83,0,0,1,564.85,271c-5.21-10.14-9.33-20.82-15.33-30.56-2.66-4.32-2.42-4.47-6-1,0-2.41,3.42-3.67,2.22-6.2-4.7-10-9.54-19.86-14.8-30.74-4.11,9.83-7.81,18.71-11.55,27.57-.51,1.2-1.16,3.31-1.8,3.33-4,.13-4.1,3.47-5,5.86-7,19.05-15.24,37.53-24,55.79-3.38,7-6,14.59-10.46,20.9a80.5,80.5,0,0,0-10.45,21.28c-.91,2.73-.48,3.78,2.56,4.24a218.85,218.85,0,0,0,53.63,1.5c7.28-.7,14.56-2.2,21.83-1.29,4.77.6,8.77-1.35,13.13-2,2.25-.32,1.25-3.52,4.3-2.94C570.81,338.23,578.23,341.14,586.7,341.16Zm172.6-112.8c4.1-12.89,9.07-25.55,16-37.4a50.29,50.29,0,0,0,4.42-9.36c2.88-8.79,5.55-17.56,10.7-25.47,3.1-4.75.88-8.13-4.74-8.28-19.32-.54-38.14,4.3-57.33,5.51-10.62.67-20.49,6.79-31.52,6.58-7.14-.14-13.67,2.29-20.34,4.29-5.06,1.52-10.07,3.75-15.47,3.43-11.35-.67-22.55,2-33.89,1.33-1.65-.1-3-.57-3,3,0,3.25,1.17,5.53,2.13,8,3.44,8.82,5.35,18.15,9.47,26.77,5.29,11.07,11.2,21.92,14.51,33.84,2.68,9.65,7,18.62,10.84,27.79q11.79,28.23,23.71,56.4c4.18,9.91,8.44,19.8,12.73,29.84,5.3-3.59,5.69-9.76,8.63-14.37,6.13-9.62,10.89-20.2,15.47-30.7,10.9-25,21.15-50.25,34.19-74.23,1.13-2.08.63-3.75.2-5.7-.25-1.16-1.28-2.86.39-3.54S757.41,228.38,759.3,228.36Zm.41,13.31c-1.84,5-3.61,9.61-5.28,14.28-5.91,16.6-12.26,33-20.64,48.56-6.59,12.24-13.13,24.52-20,36.62-2.24,4-.29,4.43,2.84,5,1.92.32,4.21-.78,6.72,2.35-14-5.37-15.23,4.91-18.22,13-.4,1.09-.82,2.18-1.19,3.28a2.86,2.86,0,0,0,.22,2.88c2.68,3.07,3.41,7.09,5,10.63a805.84,805.84,0,0,0,41.62,80.09c1,1.68,1.85,2.68,4.13,2.77,18.7.74,37.33,3,56.08-.26,8.21-1.42,16.58-4.13,25.11-1.4,4.21,1.35,8.57,1,12.89,1.15,1.74.05,3.17-.17,2-2.49-5.08-10.15-8-21.32-14.36-31.33l-7.77,11.16-1-.71c2-3.06,4-6.16,6.17-9.17,1.09-1.54,2.36-3.16,1.57-5-3.88-9.09-5.59-19.17-12.75-26.79-2.19-2.32-5.66-4.91-5.16-8.11.56-3.58-.87-6.12-2-9-1.45-3.77-3.7-7.41-4.7-11.12-1.39-5.19-4.05-9.77-5.5-14.85a3.15,3.15,0,0,0-2.89-2.4c-4.26-.39-8.45-1.47-12.82-.43-1.79.43-3.84,1.22-6.33-.33,5.57-.66,10.44-2.12,15.65-.87,1.74.42,5,.91,3.35-3.11-2.4-5.83-5-11.59-7.12-17.52-3.09-8.69-8.76-16.08-12.13-24.57-3.87-9.73-7.18-19.69-10.79-29.53-1.26-3.43-3.32-6.71-3.8-10.23-.39-2.76-3.85-.57-3.09-2.25,2.2-4.83-1.36-8.06-2.08-12.27-2.23,1.21-1,4.34-4,4.71C760.14,250.14,764.59,246.41,759.71,241.67ZM521,429.13c1.12,2.13.8,4.26.62,6.4q-1.5,18.14-3,36.28c-.46,5.92.79,7.14,7.11,7.13,1.33,0,2.66-.2,4-.3,7.76-.6,15.47-2.31,23.31-.41,2.72.65,5.61.22,8.45-.14,1.91-.25,2.41-.8,2.33-2.8a93,93,0,0,1,1.73-21.72c2.14-10.76,3.15-21.73,1.21-32.77a81.72,81.72,0,0,1-.41-25.88c2.24-15.42,2.36-30.85,1.44-46.35-.43-7.22-2.12-8.59-9.12-6.45-4.31,1.32-8.53,2.87-13.15,1.8-2-.47-3.1.16-3.25,2.43-.21,3-1,5.94-1,8.91-.13,12.33-.11,24.66-.1,37,0,20.64,1.94,41.26.79,61.94-.33,5.76-1.71,12,2.62,17.23.23.28-.12,1.32-.5,1.76-.65.77-1.47.45-2.18-.1a5.89,5.89,0,0,1-2.18-4.29,85.09,85.09,0,0,1-.29-15.47c1.36-19.15-.47-38.26-.6-57.39-.11-16.47-.67-32.95.47-49.39.22-3.07-1-2.84-3-2.65-9.42.88-18.91.8-28.31,1.4a194.5,194.5,0,0,1-37.24-1.37c-6.13-.79-6.69-.64-6.51,5.59.4,14.13,1.13,28.25,1.52,42.37.77,27.83,6.79,55.26,6.2,83.18,0,1.1.41,1.69,1.31,1.61,8-.66,15.95.72,23.92.39,2.32-.1,2.59-1.54,2-3.52-1.47-4.74-2.83-9.52-4.25-14.28-3.37-11.31-8.06-22.41-9.77-34-1.79-12.1-.19-24.59,2-36.77a22.83,22.83,0,0,1,2.26-7.11c1.68-3,1.77-5.37.37-8.68-3.35-7.92-1.79-15.18,3.3-19.18.93-.73,2-2.37,3.22-.67.92,1.26.15,2.31-1.17,3.24-4.84,3.38-4.93,8.11-3.81,13.36.79,3.7,3.86,5.27,5.81,7.83,3.2,4.2,4.42,2,5.83-.73a25.62,25.62,0,0,0,2.28-17.44c-.7-3.24-1.16-6.8-6.76-4.71,3.92-4,5.07-4.08,7.08-1.14,4.64,6.82,3.3,22.37-2.87,27.55-2.41,2-2.57,3.65-1.95,6.31a80.12,80.12,0,0,1-.12,36.64c-.8,3.48-2.69,6.55-2.18,10.48,1.43,11.05,2.34,22.17,3.57,33.25,1,9.07,1.09,9,10.35,8.51,1.93-.1,2.61-.36,2.24-2.5-.72-4.26-1.24-8.56-1.65-12.86-.33-3.51-3.24-7.24-2.66-9.68,1.3-5.46-.42-10.07-1.34-15-.27-1.44-1.14-3.33,1-3.69,1.95-.33,2.17,1.59,2.3,3.13s.21,3.33.41,5c.95,7.68,1.94,15.36,2.91,23C517.55,452,517.93,440.35,521,429.13Zm647.1-80.8a13,13,0,0,1,1.93-.45c2.69-.13,5.77,3.11,7.91.22s-1.53-5-2.51-7.47c-5.16-12.9-10.67-25.66-16-38.31-3,.2-1.34,3-3.77,4.13,2.66-6.15,2.19-11.53-2.43-16.19a10.78,10.78,0,0,0-.88,1.24c-8.39,16.72-12.48,35.06-19.54,52.28-.54,1.33-1,2.94.88,3.92.23.12,2.19,0,.24,1.13-6.2,3.69-7.69,10.7-10.05,16.59-4,10.13-8.2,20.24-12.06,30.45-2.93,7.78-5.8,15.58-8.71,23.37a139.73,139.73,0,0,0,13.27-16.32,320.34,320.34,0,0,0,20.13-31.47c.73-1.31,1.62-3.7,3.49-2.83,1.56.73.64,2.67-.32,3.91-10.44,13.6-18.76,28.66-29.46,42.1-7.68,9.65-14.77,19.75-16.29,32.56-.33,2.77-2.74,5.87-1.22,8,1.2,1.7,4.62-.18,7.06-.14,20.49.39,40.87-1.84,61.31-2.59,2.8-.1,3.75-.85,3.4-3.78-.76-6.44-1.06-12.93-1.75-19.38-1.84-17.38,1.17-34.11,6.51-50.54a10.1,10.1,0,0,0,.48-4.35c-1-9.2.58-11.72,8.94-15.43,4.26-1.89,4.57-3.46,1.91-7.27-1.4-2-3.28-2-5.27-2.05C1173,349.69,1170.65,350.45,1168.07,348.33ZM1278.86,213.5c-5.65,8-9.28,16.89-12.18,25.91-3.76,11.69-9.11,22.77-12.5,34.67-1.61,5.63-5.8,11.36-9.37,16.73-1.46,2.2-2.67,4.43-1.48,7.39,6.27,15.57,12.62,31.08,19.46,46.42,2.48,5.56,4.27,10.32,11.7,7.54,1-.36,2.28.29,3.44.36,11.37.63,22.48,5.89,34.13,1.85,1-.34,2.3.15,3.39.51,2.61.86,3.28.36,2.47-2.48-4.92-17.07-10.45-33.93-16.27-50.72C1291.69,273,1280.12,244.66,1278.86,213.5Zm-.65-20.77c-.39,0-1-.09-1.66-.11-21.56-.55-42.44,6.29-64,6-2.43,0-2.39,1.42-1.93,3.4,4,17.65,10.95,34.43,15.75,51.88,2.77,10.05,7.26,19.85,10.29,30,.29,1,.36,2.35,2.4,3.12C1255.45,257.05,1267.38,225.18,1278.21,192.73Zm44,164.36c1.36,5.19,2.32,9.92,3.84,14.45,7.8,23.13,14.39,46.67,24.18,69.11,3.29,7.56,2.89,7.64,11.27,7.63,3.63,0,4.85-.77,3-4.51-8.35-16.79-14.92-34.32-20.73-52.12-3.8-11.68-6.7-23.65-10.34-35.39-4.33-14-9.53-27.68-13.41-41.77-4-14.72-7.38-29.71-12.67-44-6.86-18.54-13.46-37.16-20-55.82-1.27-3.63-2.37-7.44-5.47-11.62-.54,3.07-1.32,5.13-1.18,7.12,1,13.94,2.49,27.83,6.44,41.31,9.59,32.72,23.56,64,32,97.1.89,3.5,1.8,6.85,6.64,7.19a9.23,9.23,0,0,1,6.62,3.52C1328.51,360.57,1326.05,357.24,1322.21,357.09Zm-861.79-11c-8.39,15.13-13.12,31.57-18.92,47.62a47.57,47.57,0,0,0-2.7,20.55c1.2,14.23,3,28.42,3.74,42.67.31,5.82,2.68,11.22,2.42,17-.08,1.78,1,2.16,2.55,2.18,6.58.08,13.16.28,19.75.38,1.2,0,2.72-.28,2.07-1.9-1.87-4.69.05-9.2.31-13.78.5-8.53-2.46-16.67-3-25.08q-1.71-27.12-3.3-54.26c-.53-8.72-1-17.44-1.56-26.27-3,.82-1.71,4-3.92,5.4C456.62,355.19,461.55,351.17,460.42,346.11Zm714.69,37.1c4.09-.92,5.07,1.42,5.3,4a39.08,39.08,0,0,1,0,9c-1.23,8.44-4.11,16.79-11.28,21.38-4,2.56-4.5,4.62-4.2,8.31.21,2.49.09,5,.28,7.49q.6,7.71,1.4,15.41c.18,1.78.23,4,2.8,4,2.87,0,2-2.58,2.36-4.11a31.83,31.83,0,0,0,.66-5.45,271.9,271.9,0,0,1,4.07-29.12c.29-1.55.31-4.18,2.18-3.86,2.47.42.85,2.67.49,4.11-2.87,11.67-3.73,23.63-5.17,35.51-.34,2.79.81,3.39,3.33,3.43,6.42.08,12.8-1.66,19.25-.25,2.19.48,3.35-.34,3.08-3-1-9.6-2-19.2-2.55-28.83-.17-2.88-5-7.38,2.06-8.75.16,0,.18-.92.2-1.41.42-9.18,3.86-18.6-3-27.13-1.89-2.37-2.39-5.81-3.75-8.66-2-4.21-4-8.43-7.48-12.31-1.46,8.05-3.14,15.08-12.06,17-1,.22-2.08,1.79-2.47,3-3.25,9.78-6.24,19.64-5,30.17.13,1.1-.27,2.55,1.23,2.93,1.31.34,2.12-.71,2.87-1.61a32.66,32.66,0,0,0,7.16-13.56C1178.11,395.13,1181.05,389,1175.11,383.21Zm125.55,69.68-3.13-8.8c-6.47-18.14-13-36.24-20.44-54-3.46-8.25-6.24-16.79-10.09-24.9-1.55-3.27-.82-7.73-5.36-9.4-.83-.3-.33-1.47.47-2,1.69-1.06.74-2.36.26-3.5-4.44-10.56-8.47-21.32-13.55-31.57-4.34-8.75-8.12-17.8-12.2-26.62-4.69-10.15-5.8-22-10.79-32.28a70.38,70.38,0,0,1-5.45-18,52.92,52.92,0,0,0-2.73-9.58c-6.48-16.53-11.37-33.59-16-50.7a190,190,0,0,0-7.34-22.71c-2.16,4.42-3.82,8.05-2.61,12.38,1.17,4.15,1.1,4.17,4.83,1.3-4,4-3.09,8.47-.87,12.25,2.71,4.62,4,9.66,5.62,14.57,2.5,7.34,7.34,13.78,7.64,22,.2,5.76,2.61,11.06,5.06,16.34,4.54,9.79,6.33,20.5,9.4,30.77,3.95,13.17,9.22,26,13.81,39,3.08,8.74,6.08,17.53,11.18,25.51a80.54,80.54,0,0,1,8.35,16.71c4.47,13,9.79,25.58,15.45,38,7.16,15.72,14.62,31.27,19.85,47.8C1294,441.6,1295.69,448.09,1300.66,452.89ZM437,418.12l-.91-.2c-2.22,4.86-4.5,9.7-6.65,14.59-5.67,12.93-10,26.39-14.87,39.62-.48,1.29-1.4,2.91,1.44,3,7.41.2,14.78,1.14,22.22-.17,2.24-.4,2.83-1.1,2.76-3-.17-4.81-.13-9.63-.52-14.42C439.45,444.35,438.21,431.24,437,418.12Zm248.69,51.12c2.91-.67,3.64,2.5,5.07,1,2-2.11,4.89-4.78,4.83-7.15-.06-2.8-3.6-4.87-6-6.85-.85-.69-1.63.18-2,.88-2.18,4.59-7.58,7.44-7.09,13.56.1,1.22-1.27,2.67-2.69,3.39a1.2,1.2,0,0,1-1.7-.54c-.69-1.42.27-2.55.89-3.68a57.06,57.06,0,0,1,5.59-8.94c5.38-6.6,5.27-6.69-.54-12.84a8.34,8.34,0,0,1-1.23-1.57c-1.59-2.81-3.2-3.15-5-.18-2.92,4.8-7.43,8.3-10.64,12.86-.94,1.34-2.37,2.49-1.46,4.42,2.19,4.67,4.28,9.6,7.87,13.2,2.47,2.49,6.33-.08,9.58-.22.83,0,1.67.09,2.5.05,1.66-.08,3.47.86,4.37-1.9C688.86,472.35,689.08,470.67,685.73,469.24Zm477.61-206.08c5.3,3.69,5.25,3.65,9.13-1.23,6.66-8.37,13.29-16.76,20.11-25,5.09-6.16,5.13-6.33-.55-12.07-1.57-1.59-2.11-1.79-4.08-.08-3.07,2.67-4.09,6.67-7.58,9.17-3.91,2.82-6.7,7.19-10.06,10.81-1.64,1.76-1.9,3.39-.2,5.21.7.75,2.2,1.22,1.44,2.26-2.25,1.59-3.91-4-5.51,0-3.16,7.84-5.83,15.87-8.61,23.86a2.51,2.51,0,0,0,.49,2.25c1.1.74,1.8-.31,2.31-1.16C1162.79,272.92,1169.32,269.8,1163.34,263.16ZM707.43,473.23c-3.07-1.39-4-4.72-6.62-6.09-1.24-.65-1.83-3.34-3.43-2.08-2.16,1.7-4.22,4.14-4.52,6.86a5.9,5.9,0,0,0,2.95,4.6c3.43,1.75,13.46-.68,16.23-3.5,3.94-4,7-8.76,10.77-12.9,6.09-6.57,5.78-6.85-.59-13.24-1.29-1.29-2.51-2.64-3.8-3.92-.72-.7-1.43-1.24-2.61-.62-3.33,1.78-6.3,9-4.92,12.74-1.83-2.93-3.45-3-5.26-.29A47.06,47.06,0,0,1,701,460.6c-2.05,2.24-1.89,3.3,1.17,4.49C705.46,466.38,709.28,468,707.43,473.23Zm204-31.61C908.74,424.19,866,328.61,859,320.7,876.75,361.07,887.81,403.28,911.42,441.62ZM500.19,404.41c.54-5.59-.7-11.61-1.86-17.65a7.43,7.43,0,0,0-3.65-5c-1.38-.89-2.56-.24-2.79.89-.92,4.53-3.94,8.3-4.14,13.13-.33,8-.11,15.95,1.77,23.76a27.5,27.5,0,0,0,3,6.81c.89,1.59,1.93,2.55,3.59.14,1.13-1.65,2.27-3.1,2.69-5.1A76.9,76.9,0,0,0,500.19,404.41Zm213.51,9.36c-5.7-4.22-4.06-12.67-9.62-16.88,1.61-4.91-2.51-8.32-3.37-12.6-.72-3.57-2.31-2.85-4.09-.37a70.91,70.91,0,0,1-7.19,8.89c-2,2-1.67,3.09.31,4.67,4.54,3.64,9.13,7.23,13.32,11.25,1.94,1.86,3.06.67,4.61-.29-.61,3.5,9,13.2,15.5,15.47l-9.07-16.55C713.36,410.16,715.65,411.89,713.7,413.77ZM584.55,94.48c9.81,26.81,22.16,52.37,34.24,78.06C610.14,142.75,595.42,115.48,584,86c-3.71,5.5-4.29,6.49-3.46,8.82a130,130,0,0,0,10.28,22.78C589.65,109.6,584.91,102.6,584.55,94.48Zm616,322.84c-1.53,1.56-.86,3.12-.78,4.49q.86,13.65,1.9,27.27c.12,1.64-.6,4,2.49,3.78,2.42-.16,3.87-1.06,4.32-3.77,1.25-7.68,2.69-15.33,4.23-22.95a10,10,0,0,0-.45-5.81c-.49-1.25-1.41-2.05-2.66-1C1205.78,422.54,1203.05,420.26,1200.55,417.32Zm-195,.51c6.54-10.09,12-36.05,9.52-43.87-4.48,6.13-5.49-.39-8.4-3C1004.91,386.82,1005.37,401.7,1005.57,417.83ZM733.28,432.5c-2.64-5.25-4.52-9.86-7.13-14-9.94-15.84-15.21-34.07-25.55-49.71-.6-.91.1-3-1.88-2.59-1.75.38-2,2.39-1.64,3.72a28.42,28.42,0,0,0,2.6,7q12.3,22.72,24.8,45.32C726.51,425.85,727.37,430.51,733.28,432.5ZM694.8,359.73c2.06-.82,1.25-2.31.72-3.54q-8.89-20.76-17.92-41.47c-.46-1-.65-3.77-2.74-2.18-1.39,1.06-4,2.23-2.4,5.17,6.37,11.66,11.62,23.84,17.06,35.94A14.7,14.7,0,0,0,694.8,359.73ZM1211,411l1.43,0a43,43,0,0,0,2.46-22.73c-.54-3-5.43-5.92-6.48-4.22-2.15,3.47-4.84,7.42-3.79,11.47C1206,400.87,1208.77,405.87,1211,411ZM478.22,309.51c10.49-20.36,20.61-41,28.54-62.55A325.63,325.63,0,0,0,478.22,309.51Zm736.42,119.14c-1.1,5.84-2,10.38-2.79,14.94-1.58,9.25-.77,9.94,8.44,7.61,1.39-.35,2.74-.59,2.11-2.49C1220.3,442.33,1219.22,435.56,1214.64,428.65ZM706,450.54a3.54,3.54,0,0,0-.46-.86c-2.18-2.26-4-5.61-6.69-6.43-2.32-.72-3.33,3.39-5,5.29a13.06,13.06,0,0,0-1.94,2.89c-1,1.95,3.83,9.56,5.87,9.42C698.77,460.78,706,451.65,706,450.54Zm452.22-195.83c2.86-.5,4.15-2.35,5.32-4,2-2.87,1-7.22,4.61-9.48,1.36-.85-.11-2.77,1.42-4.63,2.64-3.19,3.52-7.89,4.93-12a3,3,0,0,0-2.36-3.79c-2.13-.52-1.24,1.67-1.7,2.68-2.15,4.72-4.54,9.35-6.44,14.17C1161.8,243.12,1159.45,248.58,1158.17,254.71Zm45.38-45c-3.18-7.35-6.24-14.75-9.64-22-.58-1.25-2.18-4.24-3.83-2.42s-5.21,4.27-3.1,7C1191.9,198.53,1196.9,204.8,1203.55,209.72Zm-51.92,74.53-2.31-.74c-6.74,18.54-14.42,36.76-17.87,56.41Q1141.53,312.08,1151.63,284.25ZM488.23,425.12A229.09,229.09,0,0,0,498.09,460c-.28-9.18-1-18.25-1.8-27.31-.05-.58-.49-1.58-.81-1.6C492.17,430.8,491.24,427.63,488.23,425.12Zm273.1-194.38c.35-.32.85-.57,1-1a245.41,245.41,0,0,1,16.94-30.88c1.21-1.9.6-3.14-.84-4.24-2.53-1.94-2.66.91-3.35,2C768.4,207,765.1,218.88,761.33,230.74ZM758.25,477.2l-.54-1c-5.56-10.15-11.27-20.19-17.52-29.93-.61-.94-1.14-2.38-2.6-1.31-1.17.85-.77,2.1-.13,3.15,1.65,2.68,3.73,5.16,5,8,3.38,7.81,8.68,14.42,13.07,21.6a1.44,1.44,0,0,0,2.11.57C758,478.11,758.07,477.54,758.25,477.2Zm-127-80.45-1.28.86c2.75,5.93,5.48,11.88,8.28,17.79a2.37,2.37,0,0,0,1.42,1.19c.9.18,5.25-7,4.62-7.76C640.33,404.36,636.7,399.48,631.24,396.75Zm550.91-32.87c.1-1.17.07-2.5-1.25-2.87a1.9,1.9,0,0,0-2.26,1.5c-.38,1.7-1.79,1.67-3,2.17-2.73,1.16-4.93,7.34-3.24,9.63,1.23,1.68,2.73,3.42,5,.72C1180.23,371.76,1182.16,368.27,1182.15,363.88ZM749.82,260.56c-7.65,13.21-13.29,27.3-18,41.79C738.92,288.9,745.47,275.21,749.82,260.56Zm453.66,138.05c-2.14,6.31-2.71,11.36-.71,16.42.71,1.8,2,3.6,4.55,2.52,2.22-.94,2.92-2.62,2-4.82C1207.6,408.39,1205.76,404.09,1203.48,398.61ZM576.2,91.41a136.19,136.19,0,0,0-11.5,26.39C569,109.19,576.91,102.15,576.2,91.41ZM682.94,347.9l1.59-.77-13.38-28.42-1.23.57C673.86,329,677.3,338.94,682.94,347.9Zm477.89-92.2a32,32,0,0,0-7.11,11.7,4,4,0,0,0,.26,4.22c.8,1.12,1.93,1.95,2.43.08C1157.72,266.82,1160.45,262.33,1160.83,255.7Zm-56.16,151.87q5-12.72,9.92-25.44C1109.1,388.6,1104.5,400.77,1104.67,407.57ZM1095,433.36l-1.13-.31c-2.39,6.48-4.76,13-7.17,19.45-.44,1.18-.76,2.34.76,2.87,1.25.43,1.75-.5,2-1.54Q1092.29,443.59,1095,433.36ZM474.18,310.15l-13.43,27.67C468.26,328.2,473.07,318,474.18,310.15ZM1252.63,267c-3.52,6.36-8,12.33-9.33,19.81C1248,281,1250.45,274.1,1252.63,267Zm-17.48,198.16c2.23-3.42,2.37-6.25,3.15-8.86.3-1,1.15-2.52-.08-3.11a5.7,5.7,0,0,0-3.77.13c-1.54.5-.75,2-.62,3C1234.13,458.85,1234.57,461.39,1235.15,465.15ZM870.24,357.55l1.63-.81c-3.68-5.75-3.92-13.13-8.8-18.31l-1.22.57Q866,348.29,870.24,357.55ZM756,240.71a72.18,72.18,0,0,0-9.2,18.42C750.5,253.35,754.11,247.52,756,240.71Zm-82.8,146.06a6,6,0,0,0-3.88-4c-1.4-.38-2.89,1.25-3,2.65-.14,2.42,1.82,3.95,3.85,4.38C671.7,390.09,672.43,388.18,673.18,386.77Zm530.15,80.6,1-.19c.65-3,1.32-6,1.94-9.06.25-1.23.91-2.74-1.42-2.67-1.5.05-2.61.53-2.47,2.28C1202.67,460.94,1203,464.15,1203.33,467.37Zm-665.08-294q-2.88,6.69-5.74,13.38C536.55,183.14,539.49,179.06,538.25,173.4ZM730.57,435.31c1.23,2.46,2.45,4.93,3.71,7.37.37.71.87,1.56,1.84,1.2a1.93,1.93,0,0,0,1.09-2.46A8.22,8.22,0,0,0,730.57,435.31Zm438,30.56c2.24-2.77,1.56-5.62,2.06-8.29.24-1.25,0-2.43-1.6-2.35s-1.74,1.23-1.57,2.49C1167.79,460.44,1168.16,463.15,1168.54,465.87ZM551.8,145.09c-2.78,4.24-5.31,8.62-6.2,13.71C548.83,154.78,550.26,149.92,551.8,145.09Zm661.37,236.09c2-.64,2.84-2.91,3.62-5,.29-.77-.57-1.64-1.53-1.46-2.63.49-3.75,2.65-4.55,4.81C1210.25,380.76,1211.5,381.09,1213.17,381.18Zm19.08,80.91c-.37-2.74-.55-5.12-1-7.43-.35-1.59-1.79-2-3.13-1.37s-.46,1.56,0,2.4C1229.16,457.8,1229.4,460.44,1232.25,462.09ZM717,326.47A41.57,41.57,0,0,0,709.87,340C712.75,335.77,716.06,331.83,717,326.47ZM411.82,466.13a13.47,13.47,0,0,0-3.61,6.88c-.17,1-1.82,2.11.1,2.78a2.16,2.16,0,0,0,2.65-1.74C411.45,471.45,411.55,468.77,411.82,466.13Zm484.57-6.4c-2.23-2-2.29-4.61-4.93-4-1.18.27-2.5,2.16-1.92,3.07C890.92,461,893.17,459.51,896.39,459.73Z"/><path d="M1271,430.92a12.26,12.26,0,0,1-5.66-3.59c-1.52-.86-2.69-2.38-4.62-2.54-2.28.4-5.31,2.09-3.92-2.87.62-2.19-2.17-3.12-2.84-4.89-.55-1.45-3.77-2.56-.79-4.62,1.29,2.06,1.79,5,5.31,4.37,2.71-.59,2.64-3,3.33-4.95.62-1.78.61-3.89,2.6-5.58,1.47,3.74-.36,6.62-1.84,9.29-1.4,2.51-2.08,4.52.75,6.28,2.26,1.41,3.87,6.3,8,1C1268.5,425.93,1268.65,428.47,1271,430.92Z"/><path d="M252.62,301.63c-.1,1.48-.19,3-.28,4.44-.09,1.33-.81,2.34-2.07,2.38a3.21,3.21,0,0,1-2.92-2.35c-.72-2.19,1.16-.93,2-1.28,1.88-.82,1.54-5.9-.42-7.71-1.4-1.29-4-2-3.72-4.18.4-3.06,1.63-6,2.59-9,.12-.36.88-.87,1.12-.77.54.21,1.34.78,1.33,1.2a14.4,14.4,0,0,1-.62,3.84c-.6,2-1.58,3.46,1.24,5.18S252.81,298.67,252.62,301.63Z"/><path d="M218.71,216.74c-.91-3.19-2.13-5.72-2.25-8.3-.17-3.75-2.26-3.47-4.52-2.63-1.26.47-2.41,1.77-3-.33-.49-1.73,1.06-1.37,2.18-1.66,3.89-1,4-2.22.62-5.52,3-1,5.19,1.63,7.85,1.59.29,0,.92.84.83,1C218.32,205.81,221.53,211.28,218.71,216.74Z"/><path d="M270,430.49c1.29,5.4.11,11.31,4.1,16,.41.48-.11,1.29-.9,1.37a2.38,2.38,0,0,1-2.53-2C269.49,440.82,267.28,435.8,270,430.49Z"/><path d="M273.45,181.26c-.45,2-2.72,2.19-4.13,3.27-.93.7-2.13-.31-2.14-1.22,0-2.33,1.81-3.27,3.69-3.94C272.25,178.89,273,179.68,273.45,181.26Z"/><path d="M222.77,211c-.78-3.35,1-5.86,2.07-8.54a1.55,1.55,0,0,1,2.49-.6c1,.71,1.15,1.74.15,2.46C225.13,206,224.18,208.64,222.77,211Z"/><path d="M398.82,214.78c1.23-.08,1.84.74,1.57,1.45-.7,1.86-.14,4.4-2.45,5.41a1.12,1.12,0,0,1-1.45-1.36C397.21,218.4,396.92,216,398.82,214.78Z"/><path d="M865.08,243c-.7,2.65-3.41,3.08-3.68,5.63-.2,1.93-1.82.44-2.67.1-1.12-.44-1.42-1.5-.41-2.29C860.19,245,861.92,243.12,865.08,243Z"/><path d="M1143.1,274.48c1,3.3-3.17,5.29-2.2,8.68.13.48-1.19,1-2.09.64a1.45,1.45,0,0,1-.67-2.42c1.63-2.29,3.39-4.51,5.08-6.76Z"/><path d="M606.07,399.08c.78,4.79-2.28,8.56-3.81,12.61-4.91,13.06-11.56,25.36-18.53,37.45-.82,1.43-2,2.64-2,4.48,0,1-.45,2.24-1.7,1.88-1.62-.46-1.09-1.89-.55-2.88,2.12-3.95,4.28-7.88,6.55-11.75C593.89,427.53,600,413.37,606.07,399.08Z"/><path d="M516.39,283.85c-1.67,6.19-5.87,11-9.26,16.16a181.54,181.54,0,0,0-10.8,18.61c-1.27-.39-1.1-1.3-.77-2a177.45,177.45,0,0,1,20.94-32.7Z"/><path d="M516.5,283.94c3.15-8.42,9-15.16,14.12-22.35-4.77,7.41-7.32,16.21-14.23,22.26Z"/><path d="M609.65,433.21c-1,4-4.33,6.63-5.28,10.56-.17.71-.83,1.19-1.48.69-.42-.33-.87-1.29-.69-1.63C604.18,439.25,605.18,434.88,609.65,433.21Z"/><path d="M770.14,385.14c2.35-6,5-11.77,9.32-16.68C777.58,374.7,773.71,379.84,770.14,385.14Z"/><path d="M746.28,305l10.32-18c-1.8,6.9-6,12.45-9.1,18.65Z"/><path d="M728.23,346.84c5.34-.95,10.25.48,15,2.64C738.34,348.16,733.25,347.67,728.23,346.84Z"/><path d="M746.24,294.59c-2.43,2.32-2.67,5.87-4.83,8.72C740.73,298.53,741.74,296.72,746.24,294.59Z"/><path d="M510.71,411.52a113.32,113.32,0,0,1,4-33.74c.35-1.25.8-2.38.13-3.82-3.62-7.72-1.43-15.12,5.79-20.12,1.39-1,2.83-2,4.55-1s2,2.61,2,4.32c0,7.48-2.21,14-7.81,19.27-1.7,1.58-5,3.27,0,5.18,1.4.55,1.35,2.6,1.57,4.05,2,13.15.93,26.2-1.46,39.19a23.5,23.5,0,0,1-.87,2.33c-.62,2-1.89,3.13-4,3s-2.91-1.9-3.2-3.82A94.4,94.4,0,0,1,510.71,411.52Zm8.8-11.45a76.91,76.91,0,0,0-1.25-13.89c-.21-1.14-.27-2.56-1.69-2.7-1.78-.18-1.43,1.49-1.6,2.49a144.57,144.57,0,0,0-1.64,37.68c.1,1.14.16,2.78,1.4,2.9,1.63.16,1.74-1.57,2.12-2.84C519.22,416,519,408,519.51,400.07ZM523.05,355c-1.89,1.55-.18,5.22-1.87,4.89-6.13-1.22-4.31,3.92-5.6,6.39-.68,1.28-1.12,3.13.43,4.48,1.63-2.24,4.39,0,5.9-1.26C524.62,367.21,525.16,358.75,523.05,355Z"/><path d="M811.71,225.14c1.33,4.5-1.5,8.08-3.38,11.38-4.56,8-8.57,16.28-12.52,24.62A97,97,0,0,1,789.54,273c-2.43,3.7-2.39,4.77-.76,8.68.23.53-.28,1.56-.72,2.16a2.23,2.23,0,0,1-3.11.56,2,2,0,0,1-.85-2.6c1.44-4.58,2.92-9.44,5.33-13.27,3.13-5,5.06-8.66-.36-12.92a5.26,5.26,0,0,1,1.15-.49c3.19,4,5.13,3.64,6.92-1.35,1.49-4.18,3.94-8,6.05-11.95,2.37-4.42,4.81-8.77-.7-13.2,2.11-.33,2.45.49,2.81,1.16,1.63,3,2.94,2.55,4.22-.27.67-1.48,1.52-2.89,2.27-4.35Z"/><path d="M809.77,280.79a10,10,0,0,0-.75,1.84c-.42,1.94-3.55,2.94-2.49,5a31.42,31.42,0,0,0,5.37,7c1.67,1.76,2.64-.3,3.44-1.32,2.84-3.65,5.58-7.37,8.26-11.14.75-1.07,2.69-2.31.83-3.73-2.47-1.89-2.22-6.95-7-6.08,1.22-5.1-3.58-7.2-4.71-11.4,3.43,4.21,7.22,8.19,10.16,12.72,2.33,3.6,4,5.39,7.16,1.08.35-.48,1.13-.64,1.71-.95,0,0-.13-.12-.13-.12-.6,3.37-7.29,5.75-.14,10.64-3.08-.45-4.17-4.23-6.05-1.21-1.41,2.26-4.58,4-3.65,7,.55,1.74,3,2.87,3.54,5.39-2.88-.65-3.39-6-6.12-4.15-2.49,1.7-5.52,4.71-3.08,10.17-4.93-5.06-7.73-10-12.11-13.55-.63-.52-3.06-2.92.95-3.28C806.92,284.58,807.4,281.27,809.77,280.79Z"/><path d="M844.74,390.78c-.43,3.46,2.48,5.19,3.93,7.69.9,1.53,2.79,2.43,2.85,4.49-3.21-.86-4.39-3.76-6.1-6.09-1.49-2-2.49-2.37-3.8.19a33.46,33.46,0,0,1-7,9.25c1.21-4.8,3.74-7.37,5.69-10.18,1.44-2.08,1.74-3.28-.11-5.45-4.67-5.49-8.91-11.33-13.28-17.06-.75-1-2-1.8-1.19-4,5.37,6.73,10.5,13.14,15.6,19.59C842.27,390.32,842.75,392.07,844.74,390.78Z"/><path d="M843.48,310.8c-.26,3.37-2.35,5.48-4.58,7.81-1.23,1.29-3.7,2.62-2.91,5.3-6,2.31-8.38,7.13-5.65,12.28-7.28-5.24-6.53,5.46-11.9,4.76C826.46,330.57,834.72,320.49,843.48,310.8Z"/><path d="M839.39,328.33c2.79.05,3-3.14,5.07-4-.58,5.49-5.71,8.1-8,12.55-1.38,2.67-3.87,4.74-5.72,7.18-.61.81-1.08,2-2.13,1.17s-.41-1.88.51-2.89c3.2-3.51,6.21-7.21,9.36-10.76A4.38,4.38,0,0,0,839.39,328.33Z"/><path d="M804.68,313.5c-5.12-2.81-6.91-8.7-12.49-10.71a4.58,4.58,0,0,1,.29-2.61,1.08,1.08,0,0,1,2-.17C797.89,304.49,801.28,309,804.68,313.5Z"/><path d="M843.52,349c-2.06,5.77-6.49,9.84-10.46,14.24,3.35-4.84,4.78-11.08,10.57-14.14Z"/><path d="M814.73,350.67a60.6,60.6,0,0,1-9.11-11c4.4,1.59,4.59,7.59,9.53,6.29C815,347.4,814.89,348.85,814.73,350.67Z"/><path d="M843.63,349.09c-.66-2.22,1.19-3.23,2.23-4.64,1.71-2.32,3.34-4.66.26-7.37,4.88,3.69,4.15,6.65-2.61,11.9Z"/><path d="M822.39,359.31c3.52,3.27,7.18,6.42,9.39,10.84C827.54,367.51,825.32,363.1,822.39,359.31Z"/><path d="M799.26,265.05c2.75,3.27,6.11,6,7.56,10.4L798.35,266Z"/><path d="M800.41,198.9c-1,4.43-4,7.79-6.5,11.43,1.62-4.1,2.45-8.66,6.62-11.32Z"/><path d="M800.53,199c-.22-2.12,1.34-3.09,3.13-5,.28,4,3.44,6.35,2.6,10l.09-.08a4.28,4.28,0,0,1-2-3.74c-.2-3.75-2-2.73-4-1.35Z"/><path d="M1136.68,398.37c-.21,6.18-4.73,10.22-7.78,15C1129.55,407.47,1134.16,403.47,1136.68,398.37Z"/><path d="M1125.36,381.91c-3,2.32-4,6.11-5.9,9.3-.67,1.12-2,0-2.27-1.36-.34-1.93,4.65-9,6.59-9.43C1124.9,380.15,1125.22,380.74,1125.36,381.91Z"/><path d="M1162.27,349.29c-7.16,1.18-14,6.08-20-1.85C1148.4,353.66,1155.28,347.79,1162.27,349.29Z"/><path d="M582.39,215.31c3.15,1.7,4.84,4.8,6.86,7.49,2.25,3,3.61,1.74,5-.5.76-1.24,8.82-9.71,10.26-10.52-.4,1.69-.83,3.37-.16,5.08l.13-.12c-1.14-.54-2.26-1.53-3.38.11a15.47,15.47,0,0,1-1.9,2.22c-3.65,3.74-7.69,7.37-2.69,12.89-2.81-.2-3.16-5.75-7.19-3.31l.15.16c.54-2,.18-3.45-1.43-5.2C585.82,221.18,582.85,219,582.39,215.31Z"/><path d="M638.47,325.45c-1.42-1.45-2.56-.95-3.72.41s-2.49,2.66-3.74,4c6.49-6.59.92-10.84-2.85-15.64-1.69-2.16-2.55-2.43-4.29-.12-2.76,3.66-5.83,7.08-8.77,10.61,2.87-6.41,7.6-11.41,12.37-16.39a5.59,5.59,0,0,0,1.39,4.86C632,317.32,636.82,320.16,638.47,325.45Z"/><path d="M648.77,323.32c2.58-3,4.6-5.58.16-8.88l1.54-.67,20.19,20.8c-3.28-.36-4.78-3-6.89-4.74a34.29,34.29,0,0,1-5.82-6C655.08,319.78,652.33,319.11,648.77,323.32Z"/><path d="M628.49,293.41c-1.47-1.09-2.14-.06-3,1-1.19,1.35-1.75,3.51-4.09,3.57,3.72-4.78,4.7-9.28-2.54-12.92,1.51-.2,1.93-.38,2.07-.25,6.17,5.53,6.16,5.52,11.64-1.25.69-.85,1.15-2,2.7-2.29C634.26,286.13,628.36,288.16,628.49,293.41Z"/><path d="M593.68,276.93c-2.11.24-2.48,3-5.45,3.37,3.48-3.05,3.48-6,.16-8.08-3.81-2.38-3.11-4.22-.36-6.89,1.41-1.36,2.32-3.17,4.48-3.5-.87,1.37-1.45,3.13-2.66,4-2.91,2.17-2.9,3.64-.09,6.08,2.43,2.12,3.87,2.85,5.44-.52a1.83,1.83,0,0,1,2.32-.87C597.27,273.32,593.46,274,593.68,276.93Z"/><path d="M636.61,298.37c.82-3.45,3.13-5.82,5.38-8.15s3.59-4.51,0-7.08c6.53,5.94,6.38-3.88,11.11-3.92C647.83,286.3,641.43,291.68,636.61,298.37Z"/><path d="M604.35,216.86c3.39,3.65,6.12,3,8.56-1.14a7.8,7.8,0,0,1,5.18-3.68l-12.2,14.19c2.8-3.83,0-6.59-1.41-9.49Z"/><path d="M592.39,262c1.47-2.73.35-4.6-1.93-6.19a9.71,9.71,0,0,1-4.08-5.46c5.51,4,9.54,9.48,14.38,14.16.7.67,1.09,1.47.32,2.06-1.58,1.22-1.09-.76-1.64-1.14C597.29,263.88,596.8,258.78,592.39,262Z"/><path d="M616,253.74c5.94,4,5.94,4,9,1,1.6,2.59-3.92,3-1.74,5.71,1.4,1.77,3.48,3,4.32,6.33C623.38,262.4,619.47,258.91,616,253.74Z"/><path d="M614,268.18c-8.21,5.21-.2,8,2,12.2a38.74,38.74,0,0,1-10.95-10.48C608.77,272,608.77,272,614,268.18Z"/><path d="M663.66,353c-3.85-1.82-4.2,2.92-6.89,3.61,0-3.05,4.61-4.2,3.1-7.72,1.86-.16,3.69-.28,3.83-2.86,0-.38-1.5-1.64.45-1.4a22.48,22.48,0,0,1,2.63.66c-.32.74-.44,1.88-1,2.16C663.27,348.64,662.42,350.34,663.66,353Z"/><path d="M605.61,281.94c-1.42-.64-2.79-.94-3.67.82-2.66,5.3-2.53.06-3.53-.93,4.57-.62,4.63-1,.51-7.48C602.34,276.67,604.74,278.6,605.61,281.94Z"/><path d="M649.88,339.91c0-.69,0-1.38,0-2.07,2.44.24,3.27-2.27,5.45-3.25-5.86,6.56,2,8.42,3.69,12.33-2.8.26-3.26-2.51-4.84-3.8C652.78,342,651.87,340.24,649.88,339.91Z"/><path d="M623,238.4l5.58,7.49c-3.81.76-3.65-7.32-8.53-2.82C620.18,240.92,622.65,240.47,623,238.4Z"/><path d="M611.15,241.89l-4.34-7.22c2.8,1.5,4.26,6,7.63,2.15Z"/><path d="M592.38,241.44a8.4,8.4,0,0,1,3.13-5.35c1.88-1.36,1-2.79.84-4.3,2.14.69,3.31,2.28,4.28,4.43C595.86,235.17,595.05,239.69,592.38,241.44Z"/><path d="M640.39,333.45c.15-2.08,1.54-3.95,1-6.15,4.11.89,4,5.36,6.54,7.64a3.55,3.55,0,0,1-2.75-1.67C643.48,330.87,641.92,331.55,640.39,333.45Z"/><path d="M1267.73,282.1c1.31,2.21-.61,3.26-1.23,4.6a45.72,45.72,0,0,1-3.27,5.56c-.69,1.09.6,3.86-1.65,3.24s-.71-2.64-.07-4.08C1263,288,1264.51,284.56,1267.73,282.1Z"/><path d="M1271.8,309.39a29.7,29.7,0,0,1,6.79-12.89C1277.27,301.25,1275.55,305.81,1271.8,309.39Z"/><path d="M1264.48,301.15,1256,316.78A27.34,27.34,0,0,1,1264.48,301.15Z"/><path d="M1326.29,382.57c-4.31,8.57-8.47,17.22-13,25.67-2.32,4.33-4.23,8.82-6.13,13.32-1.72-.39-1.45-1.43-1.05-2.35a337.28,337.28,0,0,1,15.89-32c1-1.78,2-3.89,4.43-4.43Z"/><path d="M1317,426.59c1.61-6.51,3-13.12,7.58-18.39A56.67,56.67,0,0,1,1317,426.59Z"/><path d="M1308.46,393.41c-1.2,3.08-4.26,4.91-4.81,8.29a.93.93,0,0,1-1.54.56,2,2,0,0,1-.5-1.73C1302.92,397.31,1304.6,394.36,1308.46,393.41Z"/><path d="M1209.86,351.92a6.12,6.12,0,0,1,.8-1.24c4.68-4.28,4.56-8.19-1.12-11.29.77-1.39,1.3-.71,1.72-.38,5.42,4.25,5.42,4.26,9.85-1a36.82,36.82,0,0,1,3.14-3.85c2.25-2,2.12-3.39-.23-5.48-4.91-4.34-4.67-4.43-9.28.51-5.51,5.9-10,12.71-16.39,17.82,3.41-6.81,8.7-12.17,13.75-17.71,5.58-6.1,5.62-6.05,0-12.06-1-1.07-1.86-2.26-2.78-3.39,2.94.65,4.65,2.95,6.5,5,2,2.21,3.56,3.17,5.8.07a14.43,14.43,0,0,1,6.27-4.52,45.15,45.15,0,0,0-4.05,5.15c-.85,1.43-4,1.94-2.58,4.1a22.26,22.26,0,0,0,5.65,5.55c1.18.87,1.92-.75,2.63-1.62,1.52-1.87,2.65-4.15,5.81-5.54-.95,3.64-3.88,5.32-4.76,7.85-1.74,5-7.08,6.24-9.62,10.55s-6.7,7.58-10.18,11.28C1210.62,351.88,1210.18,351.85,1209.86,351.92Z"/><path d="M1209.52,314c-6.27-4.66-11-10.87-16.53-16.34-2.69-2.68-4.25-2.69-6.45.15a34.73,34.73,0,0,1-8.23,8.08c2.26-2.88,4.32-5.94,6.83-8.57,2.27-2.38,3.28-4.59,1.24-7.5,2.3,2.05,4,1.81,6.07-.71,4.44-5.48,9.21-10.7,14.18-16.41.8,2.69-1,3.56-2,4.66q-5.79,6.81-11.85,13.4c-1.67,1.82-1.81,3.07.07,4.91,4.62,4.54,9,9.3,13.53,13.94C1207.69,310.9,1209.15,312,1209.52,314Z"/><path d="M574.23,237.1c-9.15-4.86-14-13.46-20-21l1-.86Z"/><path d="M589.32,228.65c-2.66,7.14-8.59,11.66-13.55,17a78.25,78.25,0,0,1,13.7-16.8Z"/><path d="M554.18,222.54c2.61,3,4.83,5.57,7.11,8.1.83.93,1.06,1.66-.3,2.22s-1-.3-1.25-1.16c-.57-2.4-2.53-3.79-4.45-5C553.82,225.77,553,224.91,554.18,222.54Z"/><path d="M602,312.92c-5.07-1.61-6.83-6.38-9.66-10.13C596.49,305.29,599.35,309,602,312.92Z"/><path d="M596.36,163.88c4.12,3.23,6,8.15,9.25,12.06,1.16,1.4,2.17,2.94,3.35,4.32,4,4.72,4,4.7-1.4,8.84,3-3.74,1.19-6.37-1.07-9.51-3.64-5.05-8.14-9.63-10-15.81Z"/><path d="M596.46,163.78,591,167.43c3.16-6,7.57-9.79,11.33-14.13-.72,4.26-5.28,6.33-5.94,10.58Z"/><path d="M608.71,198.08c-3.7-4-7.16-8.11-9.48-13.1A49.91,49.91,0,0,1,608.71,198.08Z"/><path d="M564.86,181.92a100.43,100.43,0,0,1,11.65-13.15A26.72,26.72,0,0,1,564.86,181.92Z"/><path d="M1183.52,308.53,1197.16,324l-1,.89-13.61-15.31Z"/><path d="M1175.79,327.84c5,2.24,7.75,5.81,10.14,9.81C1182.88,334.34,1177.56,333.66,1175.79,327.84Z"/><path d="M1163.44,285.29c5,3.79,5,3.79-1.49,10.14C1163.29,291.58,1166.69,288.83,1163.44,285.29Z"/><path d="M1260.72,424.79c1.93.16,3.1,1.68,4.62,2.54,1.72,6.48,6.74,10.8,10.6,15.87,1.39,1.82,3.23,3.31,3.55,5.78-7.16-6.59-12.19-14.94-18.41-22.3C1260.72,426.25,1260.83,425.43,1260.72,424.79Z"/><path d="M626.73,334.07c-1.77,2.61-1.07,4.45,1,6.89,2.62,3.14,4.24.23,6.28-.14-4,3.88,0,5.7,2,8.16,1.37,1.72,2.63,3.43,5,3.86,1.2,4.43,5.74,5.8,8.41,8.93A13.09,13.09,0,0,1,652.5,367c-1.17-.17-2.11-1.9-3.53-.4-1.85,2,.58,2.84,1.23,4.93-4.32-3.11-5.86.49-7.82,2.65-2.72,3-5.17,6.25-8.27,10-.27-3.85,2.4-4.73,3.61-6.51,1.43-2.09,1.16-5.16,4.73-6.18,2.42-.69,3.1-4.47,5.5-6.09.79-.54.7-1.46,0-2.15-2.5-2.42-4.9-5-7.58-7.18-1.49-1.23-2.17.43-3,1.5a146.56,146.56,0,0,1-9.55,11.8,54,54,0,0,1,7.39-11.14c1.11-1.28,3.4-2.78,2.13-4.57-1.88-2.65-4-5.33-6.91-7-.85-.49-1.62.62-1.76,1.33-.39,1.93-2.07,2.45-3.32,3.45,4.2-5.47,2.53-9.46-2.6-13.43-3.33-2.57-5.56-6.51-8.66-9.44-1.11-1.06-2.55-2-2.22-3.33.29-1.11,2.37.48,3.33-.75-.39,5,4.11,6.82,6.53,10C623.63,337,625.24,336.19,626.73,334.07Z"/><path d="M1278.15,417.73c-6.76-4.8-11.23-11.58-16.55-17.65l1-.86Z"/><path d="M1284.47,445.45c-3.26-3.17-7.38-5.58-9.08-10.15C1278.67,438.45,1283.3,440.41,1284.47,445.45Z"/><path d="M549.86,166.92a161.35,161.35,0,0,1,17.74-20.11A63.72,63.72,0,0,1,549.86,166.92Z"/><path d="M667.51,394.78c-6,5.42-.26,9,2,13.2-1.78-.46-2.52-2.09-3.55-3.32-1.66-2-3.23-3.78-6.28-1.58C661.78,399.46,664.15,396.65,667.51,394.78Z"/><path d="M860.36,443.69c-.9,3,2,6-2,7.07-.78.21-1.92.4-2-.61C856.11,447.61,857.89,446.05,860.36,443.69Z"/><path d="M727.38,470.33l8.92-8.39c-.79,3.59-2.22,6.83-5.44,8.89-1.55,1-1,2.07,0,3.6C728.59,473.44,727.25,472.46,727.38,470.33Z"/></svg>